F.sfdir
StartChar: exclam
Encoding: 33 33 4
Width: 274
Flags: W
LayerCount: 2
Fore
SplineSet
193 444 m 1,0,-1
 176 154 l 1,1,-1
 100 154 l 1,2,-1
 82 444 l 1,3,-1
 82 584 l 1,4,-1
 193 584 l 1,5,-1
 193 444 l 1,0,-1
195 45 m 0,6,7
 195 20 195 20 178.5 4 c 128,-1,8
 162 -12 162 -12 139 -12 c 0,9,10
 114 -12 114 -12 98 4 c 128,-1,11
 82 20 82 20 82 45 c 0,12,13
 82 68 82 68 98 84 c 128,-1,14
 114 100 114 100 139 100 c 0,15,16
 162 100 162 100 178.5 84 c 128,-1,17
 195 68 195 68 195 45 c 0,6,7
EndSplineSet
EndChar
StartChar: quotedbl
Encoding: 34 34 5
Width: 786
VWidth: 1754
Flags: W
LayerCount: 2
Fore
SplineSet
646 1000 m 1,0,-1
 613 596 l 1,1,-1
 488 596 l 1,2,-1
 456 1000 l 1,3,-1
 646 1000 l 1,0,-1
325 1000 m 1,4,-1
 298 596 l 1,5,-1
 171 596 l 1,6,-1
 140 1000 l 1,7,-1
 325 1000 l 1,4,-1
EndSplineSet
EndChar
StartChar: numbersign
Encoding: 35 35 6
Width: 913
VWidth: 1754
Flags: W
LayerCount: 2
Fore
SplineSet
893 737 m 1,0,-1
 869 582 l 1,1,-1
 715 582 l 1,2,-1
 694 435 l 1,3,-1
 849 435 l 1,4,-1
 826 284 l 1,5,-1
 669 284 l 1,6,-1
 624 0 l 1,7,-1
 444 0 l 1,8,-1
 494 284 l 1,9,-1
 347 284 l 1,10,-1
 300 0 l 1,11,-1
 129 0 l 1,12,-1
 174 284 l 1,13,-1
 20 284 l 1,14,-1
 42 435 l 1,15,-1
 199 435 l 1,16,-1
 220 582 l 1,17,-1
 66 582 l 1,18,-1
 90 737 l 1,19,-1
 244 737 l 1,20,-1
 287 1000 l 1,21,-1
 458 1000 l 1,22,-1
 414 737 l 1,23,-1
 564 737 l 1,24,-1
 609 1000 l 1,25,-1
 782 1000 l 1,26,-1
 739 737 l 1,27,-1
 893 737 l 1,0,-1
542 582 m 1,28,-1
 391 582 l 1,29,-1
 371 435 l 1,30,-1
 518 435 l 1,31,-1
 542 582 l 1,28,-1
EndSplineSet
EndChar
StartChar: dollar
Encoding: 36 36 7
Width: 661
Flags: W
LayerCount: 2
Fore
SplineSet
604 166 m 0,0,1
 604 91 604 91 548.5 46 c 128,-1,2
 493 1 493 1 393 -8 c 1,3,-1
 393 -104 l 1,4,-1
 285 -104 l 1,5,-1
 285 -6 l 1,6,7
 164 2 164 2 57 78 c 1,8,-1
 121 168 l 1,9,10
 174 132 174 132 225 117 c 128,-1,11
 276 102 276 102 344 102 c 0,12,13
 496 102 496 102 496 170 c 0,14,15
 496 189 496 189 480.5 205.5 c 128,-1,16
 465 222 465 222 440 231 c 0,17,18
 394 247 394 247 301 264 c 1,19,20
 180 289 180 289 139 330 c 0,21,22
 94 375 94 375 94 432 c 0,23,24
 94 524 94 524 193 565 c 1,25,26
 235 584 235 584 283 590 c 1,27,-1
 283 590 l 1,28,-1
 283 590 l 1,29,-1
 283 591 l 1,30,-1
 283 591 l 1,31,-1
 283 592 l 1,32,-1
 283 593 l 1,33,-1
 283 594 l 1,34,-1
 283 595 l 1,35,-1
 283 596 l 1,36,-1
 283 597 l 1,37,-1
 283 598 l 1,38,-1
 283 599 l 1,39,-1
 283 600 l 1,40,-1
 283 601 l 1,41,-1
 283 602 l 1,42,-1
 283 603 l 1,43,-1
 283 604 l 1,44,-1
 283 605 l 1,45,-1
 283 606 l 1,46,-1
 283 607 l 1,47,-1
 283 608 l 1,48,-1
 283 610 l 1,49,-1
 283 611 l 1,50,-1
 283 612 l 1,51,-1
 283 613 l 1,52,-1
 283 614 l 1,53,-1
 283 615 l 1,54,-1
 283 617 l 1,55,-1
 283 618 l 1,56,-1
 283 619 l 1,57,-1
 283 620 l 1,58,-1
 283 622 l 1,59,-1
 283 623 l 1,60,-1
 283 624 l 1,61,-1
 283 626 l 1,62,-1
 283 627 l 1,63,-1
 283 628 l 1,64,-1
 283 630 l 1,65,-1
 283 631 l 1,66,-1
 283 633 l 1,67,-1
 283 634 l 1,68,-1
 283 636 l 1,69,-1
 283 637 l 1,70,-1
 283 639 l 1,71,-1
 283 640 l 1,72,-1
 283 642 l 1,73,-1
 283 643 l 1,74,-1
 283 645 l 1,75,-1
 283 646 l 1,76,-1
 283 648 l 1,77,-1
 283 650 l 1,78,-1
 283 651 l 1,79,-1
 283 653 l 1,80,-1
 283 654 l 1,81,-1
 283 656 l 1,82,-1
 283 658 l 1,83,-1
 283 659 l 1,84,-1
 283 661 l 1,85,-1
 283 663 l 1,86,-1
 283 665 l 1,87,-1
 283 666 l 1,88,-1
 283 668 l 1,89,-1
 283 670 l 1,90,-1
 283 672 l 1,91,-1
 283 673 l 1,92,-1
 283 675 l 1,93,-1
 283 684 l 1,94,-1
 395 684 l 1,95,96
 395 678 395 678 395 668 c 128,-1,97
 395 658 395 658 394.5 637 c 128,-1,98
 394 616 394 616 394 602.5 c 128,-1,99
 394 589 394 589 395 590 c 1,100,101
 479 578 479 578 567 524 c 1,102,-1
 508 432 l 1,103,104
 430 481 430 481 326 481 c 0,105,106
 205 481 205 481 205 434 c 0,107,108
 205 424 205 424 210.5 415 c 128,-1,109
 216 406 216 406 227 400 c 128,-1,110
 238 394 238 394 249 389 c 128,-1,111
 260 384 260 384 276.5 381 c 128,-1,112
 293 378 293 378 303 376 c 128,-1,113
 313 374 313 374 328.5 372 c 128,-1,114
 344 370 344 370 348 369 c 0,115,116
 447 352 447 352 518 317 c 1,117,118
 558 295 558 295 581 254 c 128,-1,119
 604 213 604 213 604 166 c 0,0,1
EndSplineSet
EndChar
StartChar: ampersand
Encoding: 38 38 8
Width: 749
Flags: W
LayerCount: 2
Fore
SplineSet
727 0 m 1,0,-1
 561 0 l 1,1,-1
 518 43 l 1,2,-1
 513 40 l 2,3,4
 508 37 508 37 498.5 32.5 c 128,-1,5
 489 28 489 28 475.5 22.5 c 128,-1,6
 462 17 462 17 444 11 c 128,-1,7
 426 5 426 5 406 0.5 c 128,-1,8
 386 -4 386 -4 360 -7 c 128,-1,9
 334 -10 334 -10 307 -10 c 0,10,11
 190 -10 190 -10 123.5 34.5 c 128,-1,12
 57 79 57 79 57 160 c 0,13,14
 57 216 57 216 92.5 256 c 128,-1,15
 128 296 128 296 213 336 c 1,16,17
 158 385 158 385 158 459 c 0,18,19
 158 520 158 520 203.5 557 c 128,-1,20
 249 594 249 594 324 594 c 0,21,22
 403 594 403 594 450.5 556 c 128,-1,23
 498 518 498 518 498 455 c 0,24,25
 498 415 498 415 475 383.5 c 128,-1,26
 452 352 452 352 395 317 c 1,27,-1
 526 193 l 1,28,29
 542 208 542 208 551.5 223 c 128,-1,30
 561 238 561 238 563 246 c 2,31,-1
 565 254 l 1,32,-1
 676 256 l 1,33,34
 668 201 668 201 602 123 c 1,35,-1
 727 0 l 1,0,-1
387 449 m 0,36,37
 387 492 387 492 330 492 c 0,38,39
 270 492 270 492 270 455 c 0,40,41
 270 429 270 429 303 403 c 2,42,-1
 330 381 l 1,43,-1
 365 410 l 1,44,45
 387 426 387 426 387 449 c 0,36,37
436 121 m 1,46,-1
 279 268 l 1,47,48
 219 237 219 237 193.5 213 c 128,-1,49
 168 189 168 189 168 164 c 0,50,51
 168 129 168 129 204 109.5 c 128,-1,52
 240 90 240 90 299 90 c 1,53,54
 338 91 338 91 372 98.5 c 128,-1,55
 406 106 406 106 421 112.5 c 128,-1,56
 436 119 436 119 436 121 c 1,46,-1
EndSplineSet
EndChar
StartChar: quotesingle
Encoding: 39 39 9
Width: 272
VWidth: 1754
Flags: W
LayerCount: 2
Fore
SplineSet
235 899 m 0,0,1
 235 801 235 801 151 725 c 1,2,-1
 91 752 l 1,3,4
 100 759 100 759 112.5 776 c 128,-1,5
 125 793 125 793 134 805 c 1,6,-1
 140 819 l 1,7,8
 137 819 137 819 130 819 c 128,-1,9
 123 819 123 819 105 824 c 128,-1,10
 87 829 87 829 74.5 836.5 c 128,-1,11
 62 844 62 844 50.5 864 c 128,-1,12
 39 884 39 884 39 910 c 0,13,14
 39 949 39 949 65 974.5 c 128,-1,15
 91 1000 91 1000 130 1000 c 0,16,17
 176 1000 176 1000 205.5 971 c 128,-1,18
 235 942 235 942 235 899 c 0,0,1
EndSplineSet
EndChar
StartChar: parenleft
Encoding: 40 40 10
Width: 465
VWidth: 1754
Flags: W
LayerCount: 2
Fore
SplineSet
435 1000 m 1,0,1
 288 717 288 717 288 505 c 0,2,3
 288 269 288 269 435 0 c 1,4,-1
 248 0 l 1,5,6
 97 277 97 277 98 505 c 0,7,8
 98 738 98 738 242 1000 c 1,9,-1
 435 1000 l 1,0,1
EndSplineSet
EndChar
StartChar: parenright
Encoding: 41 41 11
Width: 467
VWidth: 1754
Flags: W
LayerCount: 2
Fore
SplineSet
367 505 m 0,0,1
 367 277 367 277 217 0 c 1,2,-1
 30 0 l 1,3,4
 177 269 177 269 177 505 c 0,5,6
 177 717 177 717 30 1000 c 1,7,-1
 223 1000 l 1,8,9
 367 738 367 738 367 505 c 0,0,1
EndSplineSet
EndChar
StartChar: asterisk
Encoding: 42 42 12
Width: 690
VWidth: 1754
Flags: W
LayerCount: 2
Fore
SplineSet
620 740 m 1,0,1
 514 711 514 711 478 706 c 1,2,3
 495 696 495 696 508.5 682 c 128,-1,4
 522 668 522 668 542 641.5 c 128,-1,5
 562 615 562 615 576 600 c 1,6,-1
 438 502 l 2,7,8
 438 500 438 500 420.5 522.5 c 128,-1,9
 403 545 403 545 381.5 575 c 128,-1,10
 360 605 360 605 351 620 c 1,11,12
 342 605 342 605 320 575.5 c 128,-1,13
 298 546 298 546 278.5 524 c 128,-1,14
 259 502 259 502 257 502 c 2,15,-1
 120 596 l 1,16,17
 177 678 177 678 211 706 c 1,18,19
 184 709 184 709 70 743 c 1,20,-1
 116 898 l 1,21,22
 128 895 128 895 165 887 c 128,-1,23
 202 879 202 879 225 871 c 128,-1,24
 248 863 248 863 267 853 c 1,25,26
 257 892 257 892 257 1000 c 1,27,-1
 438 1000 l 1,28,29
 438 899 438 899 428 850 c 1,30,31
 440 859 440 859 456.5 864.5 c 128,-1,32
 473 870 473 870 486.5 873.5 c 128,-1,33
 500 877 500 877 527.5 883 c 128,-1,34
 555 889 555 889 572 894 c 1,35,-1
 620 740 l 1,0,1
EndSplineSet
EndChar
StartChar: plus
Encoding: 43 43 13
Width: 423
Flags: W
LayerCount: 2
Fore
SplineSet
401 244 m 1,0,-1
 266 244 l 1,1,-1
 266 113 l 1,2,-1
 156 113 l 1,3,-1
 156 244 l 1,4,-1
 23 244 l 1,5,-1
 23 354 l 1,6,-1
 156 354 l 1,7,-1
 156 481 l 1,8,-1
 266 481 l 1,9,-1
 266 354 l 1,10,-1
 401 354 l 1,11,-1
 401 244 l 1,0,-1
EndSplineSet
EndChar
StartChar: comma
Encoding: 44 44 14
Width: 159
Flags: W
LayerCount: 2
Fore
SplineSet
137 39 m 0,0,1
 137 -18 137 -18 88 -63 c 1,2,-1
 53 -47 l 1,3,4
 58 -43 58 -43 65.5 -33 c 128,-1,5
 73 -23 73 -23 78 -16 c 1,6,-1
 82 -8 l 1,7,8
 80 -8 80 -8 76 -8 c 128,-1,9
 72 -8 72 -8 61.5 -5 c 128,-1,10
 51 -2 51 -2 43.5 2.5 c 128,-1,11
 36 7 36 7 29.5 18.5 c 128,-1,12
 23 30 23 30 23 45 c 0,13,14
 23 68 23 68 38 83 c 128,-1,15
 53 98 53 98 76 98 c 0,16,17
 103 98 103 98 120 81 c 128,-1,18
 137 64 137 64 137 39 c 0,0,1
EndSplineSet
EndChar
StartChar: hyphen
Encoding: 45 45 15
AltUni2: 0000ad.ffffffff.0
Width: 433
VWidth: 1754
Flags: W
LayerCount: 2
Fore
SplineSet
393 264 m 1,0,-1
 40 264 l 1,1,-1
 40 449 l 1,2,-1
 393 449 l 1,3,-1
 393 264 l 1,0,-1
EndSplineSet
EndChar
StartChar: period
Encoding: 46 46 16
Width: 194
Flags: W
LayerCount: 2
Fore
SplineSet
154 45 m 0,0,1
 154 20 154 20 138 4 c 128,-1,2
 122 -12 122 -12 98 -12 c 0,3,4
 73 -12 73 -12 57 4 c 128,-1,5
 41 20 41 20 41 43 c 0,6,7
 41 68 41 68 57 84 c 128,-1,8
 73 100 73 100 96 100 c 0,9,10
 121 100 121 100 137.5 84 c 128,-1,11
 154 68 154 68 154 45 c 0,0,1
EndSplineSet
EndChar
StartChar: zero
Encoding: 48 48 18
Width: 1169
VWidth: 1754
Flags: W
LayerCount: 2
Fore
SplineSet
1069 505 m 0,0,1
 1069 277 1069 277 933.5 128 c 128,-1,2
 798 -21 798 -21 584 -21 c 128,-1,3
 370 -21 370 -21 235 127.5 c 128,-1,4
 100 276 100 276 100 502 c 0,5,6
 100 726 100 726 235 871.5 c 128,-1,7
 370 1017 370 1017 584 1017 c 0,8,9
 802 1017 802 1017 935.5 872.5 c 128,-1,10
 1069 728 1069 728 1069 505 c 0,0,1
879 502 m 0,11,12
 879 649 879 649 797.5 736.5 c 128,-1,13
 716 824 716 824 584 824 c 128,-1,14
 452 824 452 824 371 735 c 128,-1,15
 290 646 290 646 290 502 c 0,16,17
 290 355 290 355 372 261.5 c 128,-1,18
 454 168 454 168 584.5 168 c 128,-1,19
 715 168 715 168 797 262 c 128,-1,20
 879 356 879 356 879 502 c 0,11,12
EndSplineSet
Substitution2: "'sinf' Scientific Inferiors in Latin lookup 0 subtable" uni2080
EndChar
StartChar: one
Encoding: 49 49 19
Width: 609
VWidth: 1754
Flags: W
LayerCount: 2
Fore
SplineSet
469 0 m 1,0,-1
 281 0 l 1,1,-1
 281 733 l 1,2,-1
 140 733 l 1,3,-1
 140 874 l 1,4,5
 205 876 205 876 255 911 c 128,-1,6
 305 946 305 946 325 1000 c 1,7,-1
 469 1000 l 1,8,-1
 469 0 l 1,0,-1
EndSplineSet
Substitution2: "'sinf' Scientific Inferiors in Latin lookup 0 subtable" uni2081
EndChar
StartChar: two
Encoding: 50 50 20
Width: 1132
VWidth: 1754
Flags: W
LayerCount: 2
Fore
SplineSet
1040 0 m 1,0,-1
 122 0 l 1,1,2
 117 122 117 122 153.5 217.5 c 128,-1,3
 190 313 190 313 253.5 371.5 c 128,-1,4
 317 430 317 430 395 473.5 c 128,-1,5
 473 517 473 517 551.5 545.5 c 128,-1,6
 630 574 630 574 695.5 598.5 c 128,-1,7
 761 623 761 623 801 655 c 128,-1,8
 841 687 841 687 839 726 c 0,9,10
 837 798 837 798 726 822 c 128,-1,11
 615 846 615 846 476 812.5 c 128,-1,12
 337 779 337 779 265 706 c 1,13,-1
 135 850 l 1,14,15
 282 954 282 954 447 993.5 c 128,-1,16
 612 1033 612 1033 737.5 1010 c 128,-1,17
 863 987 863 987 947 916.5 c 128,-1,18
 1031 846 1031 846 1033 747 c 0,19,20
 1035 684 1035 684 1011.5 630.5 c 128,-1,21
 988 577 988 577 956.5 543 c 128,-1,22
 925 509 925 509 864 474.5 c 128,-1,23
 803 440 803 440 761 423 c 128,-1,24
 719 406 719 406 644 379 c 0,25,26
 634 376 634 376 601.5 362.5 c 128,-1,27
 569 349 569 349 557 345 c 128,-1,28
 545 341 545 341 515.5 329 c 128,-1,29
 486 317 486 317 473.5 310 c 128,-1,30
 461 303 461 303 438.5 291 c 128,-1,31
 416 279 416 279 405 269 c 128,-1,32
 394 259 394 259 379.5 246 c 128,-1,33
 365 233 365 233 356.5 219.5 c 128,-1,34
 348 206 348 206 343 190 c 1,35,-1
 1040 190 l 1,36,-1
 1040 0 l 1,0,-1
EndSplineSet
Substitution2: "'sinf' Scientific Inferiors in Latin lookup 0 subtable" uni2082
EndChar
StartChar: three
Encoding: 51 51 21
Width: 1137
VWidth: 1754
Flags: W
LayerCount: 2
Fore
SplineSet
1037 308 m 0,0,1
 1037 236 1037 236 1000 168.5 c 128,-1,2
 963 101 963 101 900 57 c 1,3,4
 789 -17 789 -17 602 -17 c 0,5,6
 345 -17 345 -17 184 101 c 0,7,8
 153 122 153 122 100 175 c 1,9,-1
 230 308 l 1,10,11
 372 171 372 171 591 171 c 0,12,13
 714 171 714 171 783 209 c 128,-1,14
 852 247 852 247 852 315 c 0,15,16
 852 351 852 351 832 383.5 c 128,-1,17
 812 416 812 416 781 432 c 0,18,19
 750 449 750 449 682 449 c 2,20,-1
 574 449 l 1,21,-1
 574 639 l 1,22,-1
 682 639 l 2,23,24
 792 639 792 639 792 719 c 0,25,26
 792 774 792 774 725 803 c 0,27,28
 674 824 674 824 581 824 c 0,29,30
 408 824 408 824 276 726 c 1,31,-1
 163 874 l 1,32,33
 351 1018 351 1018 581 1017 c 0,34,35
 754 1017 754 1017 865.5 935 c 128,-1,36
 977 853 977 853 977 726 c 0,37,38
 977 628 977 628 900 546 c 1,39,40
 1037 460 1037 460 1037 308 c 0,0,1
EndSplineSet
Substitution2: "'sinf' Scientific Inferiors in Latin lookup 0 subtable" uni2083
EndChar
StartChar: four
Encoding: 52 52 22
Width: 1195
VWidth: 1754
Flags: W
LayerCount: 2
Fore
SplineSet
1055 190 m 1,0,-1
 934 190 l 1,1,-1
 934 0 l 1,2,-1
 747 0 l 1,3,-1
 747 190 l 1,4,-1
 39 190 l 1,5,-1
 39 372 l 1,6,-1
 747 1000 l 1,7,-1
 934 1000 l 1,8,-1
 934 372 l 1,9,-1
 1055 372 l 1,10,-1
 1055 190 l 1,0,-1
747 372 m 1,11,-1
 747 757 l 1,12,-1
 305 372 l 1,13,-1
 747 372 l 1,11,-1
EndSplineSet
Substitution2: "'sinf' Scientific Inferiors in Latin lookup 0 subtable" uni2084
EndChar
StartChar: five
Encoding: 53 53 23
Width: 661
Flags: W
LayerCount: 2
Fore
SplineSet
604 201 m 0,0,1
 604 150 604 150 579 104.5 c 128,-1,2
 554 59 554 59 510 31 c 0,3,4
 443 -10 443 -10 336 -10 c 0,5,6
 183 -10 183 -10 57 39 c 1,7,-1
 100 141 l 1,8,9
 205 102 205 102 336 102 c 0,10,11
 431 102 431 102 471 139 c 1,12,13
 496 167 496 167 496 201 c 0,14,15
 496 247 496 247 446 276 c 1,16,17
 398 299 398 299 340 299 c 0,18,19
 274 299 274 299 182 274 c 1,20,-1
 76 293 l 1,21,-1
 92 584 l 1,22,-1
 551 584 l 1,23,-1
 551 473 l 1,24,-1
 195 473 l 1,25,-1
 190 387 l 1,26,27
 252 410 252 410 336 410 c 0,28,29
 467 410 467 410 545 338 c 1,30,31
 604 285 604 285 604 201 c 0,0,1
EndSplineSet
Substitution2: "'sinf' Scientific Inferiors in Latin lookup 0 subtable" uni2085
EndChar
StartChar: six
Encoding: 54 54 24
Width: 663
Flags: W
LayerCount: 2
Fore
SplineSet
606 176 m 0,0,1
 606 124 606 124 580.5 86 c 128,-1,2
 555 48 555 48 512 28 c 128,-1,3
 469 8 469 8 424 -1 c 128,-1,4
 379 -10 379 -10 330 -10 c 0,5,6
 57 -10 57 -10 57 244 c 0,7,8
 57 390 57 390 161 492 c 128,-1,9
 265 594 265 594 410 594 c 0,10,11
 454 594 454 594 506 578 c 1,12,-1
 475 471 l 1,13,14
 439 481 439 481 410 481 c 0,15,16
 344 481 344 481 285 449.5 c 128,-1,17
 226 418 226 418 197 365 c 1,18,19
 184 339 184 339 180 330 c 1,20,21
 245 354 245 354 344 354 c 0,22,23
 462 354 462 354 534 305 c 128,-1,24
 606 256 606 256 606 176 c 0,0,1
496 172 m 0,25,26
 496 206 496 206 453 227 c 128,-1,27
 410 248 410 248 336 248 c 0,28,29
 265 248 265 248 217.5 226.5 c 128,-1,30
 170 205 170 205 170 172 c 0,31,32
 170 141 170 141 217.5 121.5 c 128,-1,33
 265 102 265 102 334 102 c 0,34,35
 409 102 409 102 452.5 121 c 128,-1,36
 496 140 496 140 496 172 c 0,25,26
EndSplineSet
Substitution2: "'sinf' Scientific Inferiors in Latin lookup 0 subtable" uni2086
EndChar
StartChar: seven
Encoding: 55 55 25
Width: 1019
VWidth: 1754
Flags: W
LayerCount: 2
Fore
SplineSet
979 810 m 1,0,1
 909 748 909 748 871 706.5 c 128,-1,2
 833 665 833 665 794 603 c 1,3,4
 611 331 611 331 611 0 c 1,5,-1
 426 0 l 1,6,7
 426 457 426 457 714 810 c 1,8,-1
 40 810 l 1,9,-1
 40 1000 l 1,10,-1
 979 1000 l 1,11,-1
 979 810 l 1,0,1
EndSplineSet
Substitution2: "'sinf' Scientific Inferiors in Latin lookup 0 subtable" uni2087
EndChar
StartChar: eight
Encoding: 56 56 26
Width: 1140
VWidth: 1754
Flags: W
LayerCount: 2
Fore
SplineSet
1040 315 m 0,0,1
 1040 226 1040 226 990.5 148 c 128,-1,2
 941 70 941 70 855 27 c 0,3,4
 763 -18 763 -18 567 -17 c 0,5,6
 322 -17 322 -17 220 63 c 0,7,8
 100 155 100 155 100 308 c 0,9,10
 100 378 100 378 127 430.5 c 128,-1,11
 154 483 154 483 223 546 c 1,12,13
 146 632 146 632 146 733 c 0,14,15
 146 863 146 863 260 940 c 128,-1,16
 374 1017 374 1017 567 1017 c 0,17,18
 757 1017 757 1017 876 938.5 c 128,-1,19
 995 860 995 860 995 730 c 0,20,21
 995 629 995 629 918 546 c 1,22,23
 1040 442 1040 442 1040 315 c 0,0,1
809 733 m 128,-1,25
 809 824 809 824 571 824 c 128,-1,26
 333 824 333 824 333 733 c 128,-1,27
 333 642 333 642 567 642 c 0,28,24
 809 642 809 642 809 733 c 128,-1,25
855 315 m 0,29,30
 855 377 855 377 776 414.5 c 128,-1,31
 697 452 697 452 571 452 c 0,32,33
 437 452 437 452 361.5 414.5 c 128,-1,34
 286 377 286 377 286 308 c 0,35,36
 286 248 286 248 365 211.5 c 128,-1,37
 444 175 444 175 571 175 c 0,38,39
 612 175 612 175 653 180 c 128,-1,40
 694 185 694 185 743.5 198 c 128,-1,41
 793 211 793 211 824 241.5 c 128,-1,42
 855 272 855 272 855 315 c 0,29,30
EndSplineSet
Substitution2: "'sinf' Scientific Inferiors in Latin lookup 0 subtable" uni2088
EndChar
StartChar: nine
Encoding: 57 57 27
Width: 1140
VWidth: 1754
Flags: W
LayerCount: 2
Fore
SplineSet
1040 576 m 0,0,1
 1040 328 1040 328 862 153.5 c 128,-1,2
 684 -21 684 -21 437 -21 c 0,3,4
 351 -21 351 -21 269 3 c 1,5,-1
 324 187 l 1,6,7
 411 161 411 161 437 161 c 0,8,9
 547 161 547 161 648 219 c 128,-1,10
 749 277 749 277 798 372 c 1,11,12
 813 393 813 393 826 428 c 1,13,14
 701 385 701 385 545 385 c 0,15,16
 345 385 345 385 222.5 469 c 128,-1,17
 100 553 100 553 100 690 c 0,18,19
 100 779 100 779 144.5 844.5 c 128,-1,20
 189 910 189 910 261.5 944 c 128,-1,21
 334 978 334 978 412 994.5 c 128,-1,22
 490 1011 490 1011 574 1011 c 0,23,24
 1040 1011 1040 1011 1040 576 c 0,0,1
833 702 m 0,25,26
 833 753 833 753 756.5 786.5 c 128,-1,27
 680 820 680 820 564 820 c 0,28,29
 436 820 436 820 363 788.5 c 128,-1,30
 290 757 290 757 290 699 c 128,-1,31
 290 641 290 641 362.5 608.5 c 128,-1,32
 435 576 435 576 564 576 c 0,33,34
 687 576 687 576 760 609 c 128,-1,35
 833 642 833 642 833 702 c 0,25,26
EndSplineSet
Substitution2: "'sinf' Scientific Inferiors in Latin lookup 0 subtable" uni2089
EndChar
StartChar: colon
Encoding: 58 58 28
Width: 332
VWidth: 1754
Flags: W
LayerCount: 2
Fore
SplineSet
262 543 m 0,0,1
 262 504 262 504 234.5 474.5 c 128,-1,2
 207 445 207 445 168 445 c 0,3,4
 127 445 127 445 98.5 473.5 c 128,-1,5
 70 502 70 502 70 543 c 128,-1,6
 70 584 70 584 98.5 613 c 128,-1,7
 127 642 127 642 168 642 c 0,8,9
 207 642 207 642 234.5 613 c 128,-1,10
 262 584 262 584 262 543 c 0,0,1
262 74 m 2,11,-1
 262 77 l 2,12,13
 262 34 262 34 234.5 6.5 c 128,-1,14
 207 -21 207 -21 168 -21 c 0,15,16
 125 -21 125 -21 97.5 6.5 c 128,-1,17
 70 34 70 34 70 74 c 0,18,19
 70 117 70 117 97.5 144 c 128,-1,20
 125 171 125 171 168 171 c 0,21,22
 207 171 207 171 234.5 144 c 128,-1,23
 262 117 262 117 262 74 c 2,11,-1
EndSplineSet
EndChar
StartChar: equal
Encoding: 61 61 29
Width: 724
VWidth: 1754
Flags: W
LayerCount: 2
Fore
SplineSet
687 562 m 1,0,-1
 39 562 l 1,1,-1
 39 750 l 1,2,-1
 687 750 l 1,3,-1
 687 562 l 1,0,-1
687 271 m 1,4,-1
 39 271 l 1,5,-1
 39 459 l 1,6,-1
 687 459 l 1,7,-1
 687 271 l 1,4,-1
EndSplineSet
EndChar
StartChar: question
Encoding: 63 63 30
Width: 1042
VWidth: 1754
Flags: W
LayerCount: 2
Fore
SplineSet
942 719 m 0,0,1
 942 601 942 601 848 522 c 0,2,3
 838 513 838 513 816.5 497 c 128,-1,4
 795 481 795 481 785 473 c 2,5,-1
 718 428 l 2,6,7
 663 390 663 390 647 362 c 128,-1,8
 631 334 631 334 631 271 c 1,9,-1
 451 271 l 1,10,11
 453 377 453 377 482 421.5 c 128,-1,12
 511 466 511 466 631 552 c 1,13,14
 701 598 701 598 726.5 631.5 c 128,-1,15
 752 665 752 665 752 706 c 0,16,17
 752 761 752 761 691.5 794 c 128,-1,18
 631 827 631 827 528 827 c 0,19,20
 295 827 295 827 290 635 c 1,21,-1
 100 635 l 1,22,23
 102 734 102 734 120.5 791 c 128,-1,24
 139 848 139 848 184 898 c 0,25,26
 294 1018 294 1018 531 1017 c 0,27,28
 718 1017 718 1017 830 935.5 c 128,-1,29
 942 854 942 854 942 719 c 0,0,1
447 81 m 0,30,31
 447 119 447 119 474.5 145 c 128,-1,32
 502 171 502 171 542 171 c 0,33,34
 580 171 580 171 607 144.5 c 128,-1,35
 634 118 634 118 634 81 c 0,36,37
 634 42 634 42 606.5 14 c 128,-1,38
 579 -14 579 -14 542 -14 c 0,39,40
 503 -14 503 -14 475 14 c 128,-1,41
 447 42 447 42 447 81 c 0,30,31
EndSplineSet
EndChar
StartChar: at
Encoding: 64 64 31
Width: 1203
VWidth: 1754
Flags: W
LayerCount: 2
Fore
SplineSet
1103 569 m 0,0,1
 1103 430 1103 430 1025.5 320.5 c 128,-1,2
 948 211 948 211 840 211 c 0,3,4
 765 211 765 211 728 271 c 1,5,6
 658 201 658 201 560 200 c 0,7,8
 461 200 461 200 397 273 c 128,-1,9
 333 346 333 346 333 456 c 0,10,11
 333 584 333 584 414 678.5 c 128,-1,12
 495 773 495 773 612 773 c 0,13,14
 693 773 693 773 745 719 c 1,15,-1
 752 754 l 1,16,-1
 900 754 l 1,17,-1
 840 432 l 2,18,19
 830 381 830 381 829 372 c 0,20,21
 829 341 829 341 848 341 c 0,22,23
 887 341 887 341 926.5 407.5 c 128,-1,24
 966 474 966 474 966 565 c 0,25,26
 966 705 966 705 873.5 792.5 c 128,-1,27
 781 880 781 880 627 880 c 0,28,29
 457 880 457 880 352 774 c 128,-1,30
 247 668 247 668 247 498 c 0,31,32
 247 335 247 335 353 224 c 0,33,34
 452 120 452 120 634 120 c 0,35,36
 786 120 786 120 939 187 c 1,37,-1
 977 50 l 1,38,39
 813 -20 813 -20 634 -21 c 0,40,41
 403 -21 403 -21 254 123 c 0,42,43
 100 272 100 272 100 502 c 0,44,45
 100 730 100 730 245.5 873.5 c 128,-1,46
 391 1017 391 1017 619 1017 c 0,47,48
 830 1017 830 1017 966.5 891.5 c 128,-1,49
 1103 766 1103 766 1103 569 c 0,0,1
704 519 m 0,50,51
 704 565 704 565 680 591 c 128,-1,52
 656 617 656 617 619 617 c 0,53,54
 571 617 571 617 532.5 570.5 c 128,-1,55
 494 524 494 524 494 459 c 0,56,57
 494 408 494 408 518 379.5 c 128,-1,58
 542 351 542 351 581 351 c 0,59,60
 631 351 631 351 667.5 398 c 128,-1,61
 704 445 704 445 704 519 c 0,50,51
EndSplineSet
EndChar
StartChar: A
Encoding: 65 65 32
Width: 708
Flags: W
LayerCount: 2
Fore
SplineSet
686 0 m 1,0,-1
 563 0 l 1,1,-1
 504 127 l 1,2,-1
 207 127 l 1,3,-1
 145 0 l 1,4,-1
 23 0 l 1,5,-1
 299 584 l 1,6,-1
 410 584 l 1,7,-1
 686 0 l 1,0,-1
451 240 m 1,8,-1
 354 442 l 1,9,-1
 258 240 l 1,10,-1
 451 240 l 1,8,-1
EndSplineSet
EndChar
StartChar: B
Encoding: 66 66 33
Width: 688
Flags: W
LayerCount: 2
Fore
SplineSet
631 178 m 0,0,1
 631 94 631 94 582 47 c 128,-1,2
 533 0 533 0 455 0 c 2,3,-1
 82 0 l 1,4,-1
 82 584 l 1,5,-1
 440 584 l 2,6,7
 509 584 509 584 555.5 539.5 c 128,-1,8
 602 495 602 495 602 428 c 0,9,10
 602 389 602 389 588 356 c 128,-1,11
 574 323 574 323 547 309 c 1,12,13
 586 292 586 292 608.5 256.5 c 128,-1,14
 631 221 631 221 631 178 c 0,0,1
492 428 m 0,15,16
 492 473 492 473 426 473 c 2,17,-1
 193 473 l 1,18,-1
 193 365 l 1,19,-1
 426 365 l 2,20,21
 492 365 492 365 492 428 c 0,15,16
518 178 m 1,22,23
 518 254 518 254 428 254 c 2,24,-1
 193 254 l 1,25,-1
 193 111 l 1,26,-1
 426 111 l 2,27,28
 476 111 476 111 498 128.5 c 128,-1,29
 520 146 520 146 518 178 c 1,22,23
EndSplineSet
EndChar
StartChar: C
Encoding: 67 67 34
Width: 1110
VWidth: 1754
Flags: W
LayerCount: 2
Fore
SplineSet
1040 207 m 1,0,1
 970 115 970 115 910 77 c 1,2,3
 778 -17 778 -17 615 -17 c 0,4,5
 403 -17 403 -17 251.5 133.5 c 128,-1,6
 100 284 100 284 100 498 c 0,7,8
 100 716 100 716 251.5 866.5 c 128,-1,9
 403 1017 403 1017 622 1017 c 0,10,11
 750 1017 750 1017 849 965 c 128,-1,12
 948 913 948 913 1040 796 c 1,13,-1
 886 687 l 1,14,15
 775 824 775 824 615 824 c 0,16,17
 480 824 480 824 385 729.5 c 128,-1,18
 290 635 290 635 290 502 c 0,19,20
 290 365 290 365 385 270 c 128,-1,21
 480 175 480 175 615 175 c 0,22,23
 730 175 730 175 826 248 c 1,24,25
 859 281 859 281 886 312 c 1,26,-1
 1040 207 l 1,0,1
EndSplineSet
EndChar
StartChar: D
Encoding: 68 68 35
Width: 688
Flags: W
LayerCount: 2
Fore
SplineSet
631 293 m 0,0,1
 631 172 631 172 545.5 86 c 128,-1,2
 460 0 460 0 338 0 c 2,3,-1
 82 0 l 1,4,-1
 82 584 l 1,5,-1
 338 584 l 2,6,7
 459 584 459 584 545 498.5 c 128,-1,8
 631 413 631 413 631 293 c 0,0,1
518 293 m 0,9,10
 518 367 518 367 465.5 420 c 128,-1,11
 413 473 413 473 338 473 c 2,12,-1
 193 473 l 1,13,-1
 193 111 l 1,14,-1
 338 111 l 2,15,16
 413 111 413 111 465.5 164.5 c 128,-1,17
 518 218 518 218 518 293 c 0,9,10
EndSplineSet
EndChar
StartChar: E
Encoding: 69 69 36
Width: 612
Flags: W
LayerCount: 2
Fore
SplineSet
555 0 m 1,0,-1
 82 0 l 1,1,-1
 82 584 l 1,2,-1
 547 584 l 1,3,-1
 547 473 l 1,4,-1
 193 473 l 1,5,-1
 193 367 l 1,6,-1
 397 367 l 1,7,-1
 397 254 l 1,8,-1
 193 254 l 1,9,-1
 193 111 l 1,10,-1
 555 111 l 1,11,-1
 555 0 l 1,0,-1
EndSplineSet
EndChar
StartChar: F
Encoding: 70 70 37
Width: 1048
VWidth: 1754
Flags: W
LayerCount: 2
Fore
SplineSet
951 810 m 1,0,-1
 331 810 l 1,1,-1
 331 629 l 1,2,-1
 702 629 l 1,3,-1
 702 435 l 1,4,-1
 331 435 l 1,5,-1
 331 0 l 1,6,-1
 140 0 l 1,7,-1
 140 1000 l 1,8,-1
 951 1000 l 1,9,-1
 951 810 l 1,0,-1
EndSplineSet
EndChar
StartChar: G
Encoding: 71 71 38
Width: 1137
VWidth: 1754
Flags: W
LayerCount: 2
Fore
SplineSet
1037.01 435 m 2,0,1
 1037.01 248 1037.01 248 905.008 115.5 c 128,-1,2
 773.008 -17 773.008 -17 581.008 -17 c 0,3,4
 480.008 -17 480.008 -17 385.508 24 c 128,-1,5
 291.008 65 291.008 65 226.008 137 c 0,6,7
 99.0078 274 99.0078 274 100.008 498 c 0,8,9
 100.008 729 100.008 729 241.008 873 c 128,-1,10
 382.008 1017 382.008 1017 608.008 1017 c 0,11,12
 764.008 1017 764.008 1017 876.008 940 c 1,13,14
 939.008 899 939.008 899 1019.01 796 c 1,15,-1
 862.008 687 l 1,16,17
 809.008 761 809.008 761 749.008 792.5 c 128,-1,18
 689.008 824 689.008 824 605.008 824 c 0,19,20
 459.008 824 459.008 824 374.508 735.5 c 128,-1,21
 290.008 647 290.008 647 290.008 495 c 0,22,23
 290.008 353 290.008 353 370.508 264 c 128,-1,24
 451.008 175 451.008 175 581.008 175 c 128,-1,25
 711.008 175 711.008 175 788.008 267 c 0,26,27
 815.008 301 815.008 301 836.008 355 c 1,28,-1
 612.008 355 l 1,29,-1
 612.008 546 l 1,30,-1
 1037.01 546 l 1,31,-1
 1037.01 435 l 2,0,1
EndSplineSet
EndChar
StartChar: H
Encoding: 72 72 39
Width: 710
Flags: W
LayerCount: 2
Fore
SplineSet
629 0 m 1,0,-1
 520 0 l 1,1,-1
 520 254 l 1,2,-1
 193 254 l 1,3,-1
 193 0 l 1,4,-1
 82 0 l 1,5,-1
 82 584 l 1,6,-1
 193 584 l 1,7,-1
 193 367 l 1,8,-1
 520 367 l 1,9,-1
 520 584 l 1,10,-1
 629 584 l 1,11,-1
 629 0 l 1,0,-1
EndSplineSet
EndChar
StartChar: I
Encoding: 73 73 40
Width: 472
VWidth: 1754
Flags: W
LayerCount: 2
Fore
SplineSet
331 0 m 1,0,-1
 331 0 l 1,1,-1
 331 0 l 1,2,-1
 329 0 l 1,3,-1
 329 0 l 1,4,-1
 327 0 l 1,5,-1
 327 0 l 1,6,-1
 325 0 l 1,7,-1
 324 0 l 1,8,-1
 322 0 l 1,9,-1
 320 0 l 1,10,-1
 319 0 l 1,11,-1
 317 0 l 1,12,-1
 315 0 l 1,13,-1
 313 0 l 1,14,-1
 312 0 l 1,15,-1
 310 0 l 1,16,-1
 308 0 l 1,17,-1
 307 0 l 1,18,-1
 305 0 l 1,19,-1
 303 0 l 1,20,-1
 301 0 l 1,21,-1
 300 0 l 1,22,-1
 298 0 l 1,23,-1
 296 0 l 1,24,-1
 293 0 l 1,25,-1
 291 0 l 1,26,-1
 289 0 l 1,27,-1
 288 0 l 1,28,-1
 286 0 l 1,29,-1
 284 0 l 1,30,-1
 283 0 l 1,31,-1
 279 0 l 1,32,-1
 277 0 l 1,33,-1
 276 0 l 1,34,-1
 274 0 l 1,35,-1
 271 0 l 1,36,-1
 269 0 l 1,37,-1
 267 0 l 1,38,-1
 265 0 l 1,39,-1
 262 0 l 1,40,-1
 260 0 l 1,41,-1
 259 0 l 1,42,-1
 255 0 l 1,43,-1
 254 0 l 1,44,-1
 250 0 l 1,45,-1
 248 0 l 1,46,-1
 247 0 l 1,47,-1
 243 0 l 1,48,-1
 242 0 l 1,49,-1
 238 0 l 1,50,-1
 236 0 l 1,51,-1
 233 0 l 1,52,-1
 231 0 l 1,53,-1
 228 0 l 1,54,-1
 226 0 l 1,55,-1
 223 0 l 1,56,-1
 219 0 l 1,57,-1
 218 0 l 1,58,-1
 214 0 l 1,59,-1
 212 0 l 1,60,-1
 209 0 l 1,61,-1
 207 0 l 1,62,-1
 204 0 l 1,63,-1
 200 0 l 1,64,-1
 199 0 l 1,65,-1
 195 0 l 1,66,-1
 192 0 l 1,67,-1
 190 0 l 1,68,-1
 187 0 l 1,69,-1
 183 0 l 1,70,-1
 180 0 l 1,71,-1
 178 0 l 1,72,-1
 175 0 l 1,73,-1
 171 0 l 1,74,-1
 168 0 l 1,75,-1
 166 0 l 1,76,-1
 163 0 l 1,77,-1
 159 0 l 1,78,-1
 156 0 l 1,79,-1
 140 0 l 1,80,-1
 140 1000 l 1,81,-1
 331 1000 l 1,82,83
 334 0 334 0 331 0 c 1,0,-1
EndSplineSet
EndChar
StartChar: J
Encoding: 74 74 41
Width: 1007
VWidth: 1754
Flags: W
LayerCount: 2
Fore
SplineSet
868 432 m 2,0,1
 868 290 868 290 811 194 c 0,2,3
 756 98 756 98 655 40.5 c 128,-1,4
 554 -17 554 -17 443 -17 c 0,5,6
 297 -17 297 -17 188.5 72 c 128,-1,7
 80 161 80 161 40 312 c 1,8,-1
 222 351 l 1,9,10
 239 270 239 270 301.5 222.5 c 128,-1,11
 364 175 364 175 446 175 c 0,12,13
 547 175 547 175 612.5 245 c 128,-1,14
 678 315 678 315 678 428 c 2,15,-1
 678 1000 l 1,16,-1
 868 1000 l 1,17,-1
 868 432 l 2,0,1
EndSplineSet
EndChar
StartChar: K
Encoding: 75 75 42
Width: 651
Flags: W
LayerCount: 2
Fore
SplineSet
629 0 m 1,0,-1
 502 0 l 1,1,-1
 324 299 l 1,2,-1
 193 164 l 1,3,-1
 193 0 l 1,4,-1
 82 0 l 1,5,-1
 82 584 l 1,6,-1
 193 584 l 1,7,-1
 193 326 l 1,8,-1
 436 584 l 1,9,-1
 586 584 l 1,10,-1
 401 383 l 1,11,-1
 629 0 l 1,0,-1
EndSplineSet
EndChar
StartChar: L
Encoding: 76 76 43
Width: 1038
VWidth: 1754
Flags: W
LayerCount: 2
Fore
SplineSet
1000 0 m 1,0,-1
 140 0 l 1,1,-1
 140 1000 l 1,2,-1
 331 1000 l 1,3,-1
 331 190 l 1,4,-1
 1000 190 l 1,5,-1
 1000 0 l 1,0,-1
EndSplineSet
EndChar
StartChar: M
Encoding: 77 77 44
Width: 1361
VWidth: 1754
Flags: W
LayerCount: 2
Fore
SplineSet
1221 0 m 1,0,-1
 1031 0 l 1,1,-1
 1031 593 l 1,2,-1
 670 0 l 1,3,-1
 325 593 l 1,4,-1
 325 0 l 1,5,-1
 140 0 l 1,6,-1
 140 1000 l 1,7,-1
 315 1000 l 1,8,-1
 670 372 l 1,9,-1
 1041 1000 l 1,10,-1
 1221 1000 l 1,11,-1
 1221 0 l 1,0,-1
EndSplineSet
EndChar
StartChar: N
Encoding: 78 78 45
Width: 1219
VWidth: 1754
Flags: W
LayerCount: 2
Fore
SplineSet
1081 0 m 1,0,-1
 891 0 l 1,1,-1
 331 690 l 1,2,-1
 331 0 l 1,3,-1
 140 0 l 1,4,-1
 140 1000 l 1,5,-1
 325 1000 l 1,6,-1
 887 301 l 1,7,-1
 887 1000 l 1,8,-1
 1081 1000 l 1,9,-1
 1081 0 l 1,0,-1
EndSplineSet
EndChar
StartChar: O
Encoding: 79 79 46
Width: 1244
VWidth: 1754
Flags: W
LayerCount: 2
Fore
SplineSet
1146 505 m 0,0,1
 1146 289 1146 289 991 136 c 128,-1,2
 836 -17 836 -17 622 -17 c 128,-1,3
 408 -17 408 -17 254 136 c 128,-1,4
 100 289 100 289 100 502 c 0,5,6
 100 720 100 720 250.5 868.5 c 128,-1,7
 401 1017 401 1017 622 1017 c 0,8,9
 831 1017 831 1017 988.5 864.5 c 128,-1,10
 1146 712 1146 712 1146 505 c 0,0,1
956 505 m 2,11,-1
 956 502 l 2,12,13
 956 636 956 636 857.5 730 c 128,-1,14
 759 824 759 824 622 824 c 128,-1,15
 485 824 485 824 387.5 731.5 c 128,-1,16
 290 639 290 639 290 505 c 0,17,18
 290 370 290 370 387.5 272.5 c 128,-1,19
 485 175 485 175 622 175 c 128,-1,20
 759 175 759 175 857.5 272.5 c 128,-1,21
 956 370 956 370 956 505 c 2,11,-1
EndSplineSet
EndChar
StartChar: P
Encoding: 80 80 47
Width: 1178
VWidth: 1754
Flags: W
LayerCount: 2
Fore
SplineSet
1081 686.5 m 128,-1,1
 1081 558 1081 558 989.5 466.5 c 128,-1,2
 898 375 898 375 769 375 c 2,3,-1
 331 375 l 1,4,-1
 331 0 l 1,5,-1
 140 0 l 1,6,-1
 140 1000 l 1,7,-1
 769 1000 l 2,8,9
 897 1000 897 1000 989 907.5 c 128,-1,0
 1081 815 1081 815 1081 686.5 c 128,-1,1
887 687 m 0,10,11
 887 738 887 738 853 774 c 128,-1,12
 819 810 819 810 769 810 c 2,13,-1
 331 810 l 1,14,-1
 331 565 l 1,15,-1
 769 565 l 2,16,17
 819 565 819 565 853 601 c 128,-1,18
 887 637 887 637 887 687 c 0,10,11
EndSplineSet
EndChar
StartChar: Q
Encoding: 81 81 48
Width: 1245
VWidth: 1754
Flags: W
LayerCount: 2
Fore
SplineSet
1148 502 m 0,0,1
 1148 269 1148 269 981 123 c 1,2,-1
 1038 34 l 1,3,-1
 877 -70 l 1,4,-1
 820 21 l 1,5,6
 738 -17 738 -17 620 -17 c 0,7,8
 404 -17 404 -17 251 135.5 c 128,-1,9
 98 288 98 288 98 502 c 0,10,11
 98 714 98 714 251 865.5 c 128,-1,12
 404 1017 404 1017 620 1017 c 0,13,14
 838 1017 838 1017 993 866.5 c 128,-1,15
 1148 716 1148 716 1148 502 c 0,0,1
958 501.5 m 128,-1,17
 958 635 958 635 859.5 729.5 c 128,-1,18
 761 824 761 824 620 824 c 0,19,20
 483 824 483 824 385.5 729.5 c 128,-1,21
 288 635 288 635 288 502 c 0,22,23
 288 367 288 367 385.5 271 c 128,-1,24
 483 175 483 175 620 175 c 0,25,26
 690 175 690 175 716 182 c 1,27,-1
 629 322 l 1,28,-1
 790 425 l 1,29,-1
 877 288 l 1,30,16
 958 368 958 368 958 501.5 c 128,-1,17
EndSplineSet
EndChar
StartChar: R
Encoding: 82 82 49
Width: 688
Flags: W
LayerCount: 2
Fore
SplineSet
631 0 m 1,0,-1
 502 0 l 1,1,-1
 373 219 l 1,2,-1
 193 219 l 1,3,-1
 193 0 l 1,4,-1
 82 0 l 1,5,-1
 82 584 l 1,6,-1
 438 584 l 2,7,8
 514 584 514 584 568.5 530 c 128,-1,9
 623 476 623 476 623 401 c 0,10,11
 623 343 623 343 589 296 c 128,-1,12
 555 249 555 249 498 229 c 1,13,-1
 631 0 l 1,0,-1
512 401 m 128,-1,15
 512 430 512 430 490.5 451.5 c 128,-1,16
 469 473 469 473 438 473 c 2,17,-1
 193 473 l 1,18,-1
 193 330 l 1,19,-1
 438 330 l 2,20,21
 469 330 469 330 490.5 351 c 128,-1,14
 512 372 512 372 512 401 c 128,-1,15
EndSplineSet
EndChar
StartChar: S
Encoding: 83 83 50
Width: 1132
VWidth: 1754
Flags: W
LayerCount: 2
Fore
SplineSet
1035 284 m 0,0,1
 1035 142 1035 142 919 62.5 c 128,-1,2
 803 -17 803 -17 596 -17 c 0,3,4
 442 -17 442 -17 326.5 18 c 128,-1,5
 211 53 211 53 98 134 c 1,6,-1
 207 288 l 1,7,8
 298 226 298 226 385.5 200.5 c 128,-1,9
 473 175 473 175 589 175 c 0,10,11
 849 175 849 175 850 291 c 0,12,13
 850 324 850 324 823 352 c 128,-1,14
 796 380 796 380 754 396 c 0,15,16
 675 423 675 423 516 452 c 1,17,18
 309 495 309 495 238 565 c 0,19,20
 161 642 161 642 161 740 c 0,21,22
 161 898 161 898 331 968 c 1,23,24
 444 1018 444 1018 572 1017 c 0,25,26
 772 1017 772 1017 971 898 c 1,27,-1
 870 740 l 1,28,29
 736 824 736 824 558 824 c 0,30,31
 351 824 351 824 351 743 c 0,32,33
 351 726 351 726 360.5 710.5 c 128,-1,34
 370 695 370 695 389 685 c 128,-1,35
 408 675 408 675 426.5 666.5 c 128,-1,36
 445 658 445 658 473.5 652.5 c 128,-1,37
 502 647 502 647 519 644 c 128,-1,38
 536 641 536 641 562.5 637.5 c 128,-1,39
 589 634 589 634 596 632 c 0,40,41
 766 603 766 603 887 543 c 1,42,43
 956 505 956 505 995.5 435 c 128,-1,44
 1035 365 1035 365 1035 284 c 0,0,1
EndSplineSet
EndChar
StartChar: T
Encoding: 84 84 51
Width: 935
VWidth: 1754
Flags: W
LayerCount: 2
Fore
SplineSet
898 810 m 1,0,-1
 572 810 l 1,1,-1
 572 0 l 1,2,-1
 382 0 l 1,3,-1
 382 810 l 1,4,-1
 39 810 l 1,5,-1
 39 1000 l 1,6,-1
 898 1000 l 1,7,-1
 898 810 l 1,0,-1
EndSplineSet
EndChar
StartChar: U
Encoding: 85 85 52
Width: 710
Flags: W
LayerCount: 2
Fore
SplineSet
629 276 m 2,0,1
 629 185 629 185 594 125 c 0,2,3
 557 63 557 63 492.5 26.5 c 128,-1,4
 428 -10 428 -10 356 -10 c 128,-1,5
 284 -10 284 -10 219 27 c 128,-1,6
 154 64 154 64 119 125 c 1,7,8
 82 192 82 192 82 276 c 2,9,-1
 82 584 l 1,10,-1
 193 584 l 1,11,-1
 193 276 l 2,12,13
 193 224 193 224 215 182 c 1,14,15
 237 145 237 145 275 123.5 c 128,-1,16
 313 102 313 102 356 102 c 128,-1,17
 399 102 399 102 437.5 124 c 128,-1,18
 476 146 476 146 496 182 c 1,19,20
 518 219 518 219 518 276 c 2,21,-1
 518 584 l 1,22,-1
 629 584 l 1,23,-1
 629 276 l 2,0,1
EndSplineSet
EndChar
StartChar: V
Encoding: 86 86 53
Width: 1121
VWidth: 1754
Flags: W
LayerCount: 2
Fore
SplineSet
1084 1000 m 1,0,-1
 677 0 l 1,1,-1
 445 0 l 1,2,-1
 39 1000 l 1,3,-1
 242 1000 l 1,4,-1
 562 231 l 1,5,-1
 874 1000 l 1,6,-1
 1084 1000 l 1,0,-1
EndSplineSet
EndChar
StartChar: W
Encoding: 87 87 54
Width: 1249
VWidth: 1754
Flags: W
LayerCount: 2
Fore
SplineSet
1209 1000 m 1,0,-1
 998 0 l 1,1,-1
 794 0 l 1,2,-1
 621 625 l 1,3,-1
 450 0 l 1,4,-1
 249 0 l 1,5,-1
 40 1000 l 1,6,-1
 232 1000 l 1,7,-1
 362 389 l 1,8,-1
 530 1000 l 1,9,-1
 717 1000 l 1,10,-1
 885 389 l 1,11,-1
 1015 1000 l 1,12,-1
 1209 1000 l 1,0,-1
EndSplineSet
EndChar
StartChar: X
Encoding: 88 88 55
Width: 1096
VWidth: 1754
Flags: W
LayerCount: 2
Fore
SplineSet
1056 0 m 1,0,-1
 821 0 l 1,1,-1
 547 361 l 1,2,-1
 275 0 l 1,3,-1
 40 0 l 1,4,-1
 429 519 l 1,5,-1
 71 1000 l 1,6,-1
 306 1000 l 1,7,-1
 547 680 l 1,8,-1
 791 1000 l 1,9,-1
 1025 1000 l 1,10,-1
 667 519 l 1,11,-1
 1056 0 l 1,0,-1
EndSplineSet
EndChar
StartChar: Y
Encoding: 89 89 56
Width: 1212
VWidth: 1754
Flags: W
LayerCount: 2
Fore
SplineSet
1175 1000 m 1,0,-1
 702 404 l 1,1,-1
 702 0 l 1,2,-1
 512 0 l 1,3,-1
 512 404 l 1,4,-1
 39 1000 l 1,5,-1
 281 1000 l 1,6,-1
 606 589 l 1,7,-1
 934 1000 l 1,8,-1
 1175 1000 l 1,0,-1
EndSplineSet
EndChar
StartChar: Z
Encoding: 90 90 57
Width: 628
Flags: W
LayerCount: 2
Fore
SplineSet
588 0 m 1,0,-1
 41 0 l 1,1,-1
 41 111 l 1,2,-1
 426 473 l 1,3,-1
 59 473 l 1,4,-1
 59 584 l 1,5,-1
 588 584 l 1,6,-1
 588 473 l 1,7,-1
 203 111 l 1,8,-1
 588 111 l 1,9,-1
 588 0 l 1,0,-1
EndSplineSet
EndChar
StartChar: grave
Encoding: 96 96 124
Width: 438
VWidth: 1754
Flags: W
LayerCount: 2
Fore
SplineSet
293 822 m 1,0,-1
 151 822 l 1,1,-1
 0 1000 l 1,2,-1
 183 1000 l 1,3,-1
 293 822 l 1,0,-1
EndSplineSet
EndChar
StartChar: a
Encoding: 97 97 58
Width: 559
Flags: W
LayerCount: 2
Fore
SplineSet
489 0 m 1,0,-1
 367 0 l 1,1,-1
 367 18 l 1,2,3
 363 16 363 16 361 15.5 c 128,-1,4
 359 15 359 15 353.5 13.5 c 128,-1,5
 348 12 348 12 340 10 c 0,6,7
 284 -8 284 -8 236 -8 c 0,8,9
 153 -8 153 -8 100 31.5 c 128,-1,10
 47 71 47 71 47 133 c 0,11,12
 47 197 47 197 105.5 240 c 128,-1,13
 164 283 164 283 252 283 c 0,14,15
 310 283 310 283 379 266 c 1,16,17
 378 307 378 307 354.5 322.5 c 128,-1,18
 331 338 331 338 281 338 c 0,19,20
 223 338 223 338 133 301 c 1,21,-1
 86 393 l 1,22,23
 187 436 187 436 281 436 c 0,24,25
 489 436 489 436 489 258 c 2,26,-1
 489 0 l 1,0,-1
379 115 m 1,27,-1
 379 174 l 1,28,29
 361 182 361 182 326 187.5 c 128,-1,30
 291 193 291 193 252.5 194.5 c 128,-1,31
 214 196 214 196 186 182.5 c 128,-1,32
 158 169 158 169 158 141 c 0,33,34
 158 52 158 52 379 115 c 1,27,-1
EndSplineSet
EndChar
StartChar: b
Encoding: 98 98 59
Width: 579
Flags: W
LayerCount: 2
Fore
SplineSet
532 213 m 0,0,1
 532 119 532 119 466 55.5 c 128,-1,2
 400 -8 400 -8 303 -8 c 0,3,4
 272 -8 272 -8 234.5 1.5 c 128,-1,5
 197 11 197 11 182 23 c 1,6,-1
 182 0 l 1,7,-1
 70 0 l 1,8,-1
 70 555 l 1,9,-1
 182 594 l 1,10,-1
 182 403 l 1,11,12
 233 432 233 432 301 432 c 0,13,14
 399 432 399 432 465.5 368.5 c 128,-1,15
 532 305 532 305 532 213 c 0,0,1
422 213 m 0,16,17
 422 274 422 274 378.5 304 c 128,-1,18
 335 334 335 334 278.5 327.5 c 128,-1,19
 222 321 222 321 182 287 c 1,20,-1
 182 139 l 1,21,22
 221 102 221 102 278 97 c 128,-1,23
 335 92 335 92 378.5 123.5 c 128,-1,24
 422 155 422 155 422 213 c 0,16,17
EndSplineSet
EndChar
StartChar: c
Encoding: 99 99 60
Width: 485
Flags: W
LayerCount: 2
Fore
SplineSet
457 70 m 1,0,1
 389 -8 389 -8 279 -8 c 0,2,3
 182 -8 182 -8 114.5 56.5 c 128,-1,4
 47 121 47 121 47 213 c 128,-1,5
 47 305 47 305 114.5 368.5 c 128,-1,6
 182 432 182 432 279 432 c 0,7,8
 389 432 389 432 455 356 c 1,9,-1
 455 358 l 1,10,-1
 387 268 l 1,11,12
 344 328 344 328 279 328 c 0,13,14
 232 328 232 328 196 295 c 128,-1,15
 160 262 160 262 160 213 c 0,16,17
 160 162 160 162 195.5 130 c 128,-1,18
 231 98 231 98 279 98 c 0,19,20
 347 98 347 98 381 147 c 1,21,-1
 457 70 l 1,0,1
EndSplineSet
EndChar
StartChar: d
Encoding: 100 100 61
Width: 579
Flags: W
LayerCount: 2
Fore
SplineSet
510 0 m 1,0,-1
 399 0 l 1,1,2
 399 23 399 23 397 23 c 1,3,4
 381 12 381 12 344 2 c 128,-1,5
 307 -8 307 -8 279 -8 c 0,6,7
 181 -8 181 -8 114 55.5 c 128,-1,8
 47 119 47 119 47 213 c 0,9,10
 47 305 47 305 115 368.5 c 128,-1,11
 183 432 183 432 281 432 c 0,12,13
 346 432 346 432 397 403 c 1,14,-1
 397 551 l 1,15,-1
 510 594 l 1,16,-1
 510 0 l 1,0,-1
397 287 m 1,17,18
 357 321 357 321 300.5 327.5 c 128,-1,19
 244 334 244 334 201 304 c 128,-1,20
 158 274 158 274 158 213 c 0,21,22
 158 155 158 155 201.5 123.5 c 128,-1,23
 245 92 245 92 301.5 97 c 128,-1,24
 358 102 358 102 397 139 c 1,25,-1
 397 287 l 1,17,18
EndSplineSet
EndChar
StartChar: e
Encoding: 101 101 62
Width: 957
VWidth: 1754
Flags: W
LayerCount: 2
Fore
SplineSet
877 308 m 1,0,-1
 277 308 l 1,1,2
 294 245 294 245 351 203 c 128,-1,3
 408 161 408 161 473 161 c 0,4,5
 511 161 511 161 558.5 177.5 c 128,-1,6
 606 194 606 194 632 214 c 1,7,-1
 776 84 l 1,8,9
 644 -17 644 -17 478 -17 c 128,-1,10
 312 -17 312 -17 196.5 95 c 128,-1,11
 81 207 81 207 81 364.5 c 128,-1,12
 81 522 81 522 196.5 631 c 128,-1,13
 312 740 312 740 478 740 c 0,14,15
 653 740 653 740 761.5 629.5 c 128,-1,16
 870 519 870 519 877 308 c 1,0,-1
659 452 m 1,17,-1
 659 449 l 1,18,19
 644 502 644 502 592 532 c 128,-1,20
 540 562 540 562 478 562 c 0,21,22
 397 562 397 562 343 527 c 128,-1,23
 289 492 289 492 277 452 c 1,24,-1
 659 452 l 1,17,-1
EndSplineSet
EndChar
StartChar: f
Encoding: 102 102 63
Width: 288
Flags: W
LayerCount: 2
Fore
SplineSet
270 324 m 1,0,-1
 195 324 l 1,1,-1
 195 0 l 1,2,-1
 82 0 l 1,3,-1
 82 324 l 1,4,-1
 18 324 l 1,5,-1
 18 424 l 1,6,-1
 82 424 l 1,7,-1
 82 487 l 2,8,9
 82 543 82 543 112.5 568.5 c 128,-1,10
 143 594 143 594 209 594 c 0,11,12
 230 594 230 594 270 590 c 1,13,-1
 270 498 l 1,14,15
 250 500 250 500 233 500 c 0,16,17
 211 500 211 500 203 490.5 c 128,-1,18
 195 481 195 481 195 461 c 2,19,-1
 195 424 l 1,20,-1
 270 424 l 1,21,-1
 270 324 l 1,0,-1
EndSplineSet
EndChar
StartChar: g
Encoding: 103 103 64
Width: 552
Flags: W
LayerCount: 2
Fore
SplineSet
483 4 m 2,0,1
 483 -94 483 -94 430 -145 c 128,-1,2
 377 -196 377 -196 272 -229 c 1,3,-1
 223 -135 l 1,4,5
 248 -130 248 -130 281 -115 c 128,-1,6
 314 -100 314 -100 343.5 -72 c 128,-1,7
 373 -44 373 -44 373 -14 c 2,8,-1
 373 29 l 1,9,10
 333 -8 333 -8 248 -8 c 0,11,12
 155 -9 155 -9 101 53.5 c 128,-1,13
 47 116 47 116 47 211 c 0,14,15
 47 307 47 307 100 370.5 c 128,-1,16
 153 434 153 434 250 434 c 0,17,18
 288 434 288 434 322.5 423 c 128,-1,19
 357 412 357 412 373 399 c 1,20,-1
 373 426 l 1,21,-1
 483 426 l 1,22,-1
 483 4 l 2,0,1
373 135 m 1,23,-1
 373 287 l 1,24,25
 338 322 338 322 288 329.5 c 128,-1,26
 238 337 238 337 198 306.5 c 128,-1,27
 158 276 158 276 158 211 c 0,28,29
 158 150 158 150 196 121.5 c 128,-1,30
 234 93 234 93 283.5 99 c 128,-1,31
 333 105 333 105 373 135 c 1,23,-1
EndSplineSet
EndChar
StartChar: h
Encoding: 104 104 65
Width: 981
VWidth: 1754
Flags: W
LayerCount: 2
Fore
SplineSet
863 0 m 1,0,-1
 673 0 l 1,1,-1
 673 404 l 2,2,3
 673 503 673 503 625 539.5 c 128,-1,4
 577 576 577 576 492 576 c 0,5,6
 410 576 410 576 359 539 c 128,-1,7
 308 502 308 502 308 396 c 2,8,-1
 308 0 l 1,9,-1
 120 0 l 1,10,-1
 120 951 l 1,11,-1
 308 1017 l 1,12,-1
 308 670 l 1,13,14
 344 704 344 704 409 723.5 c 128,-1,15
 474 743 474 743 540 743 c 0,16,17
 689 743 689 743 776 675.5 c 128,-1,18
 863 608 863 608 863 473 c 2,19,-1
 863 0 l 1,0,-1
EndSplineSet
EndChar
StartChar: i
Encoding: 105 105 66
Width: 435
VWidth: 1754
Flags: W
LayerCount: 2
Fore
SplineSet
315 923.5 m 128,-1,1
 315 884 315 884 286 854 c 128,-1,2
 257 824 257 824 218 824 c 0,3,4
 175 824 175 824 147.5 852 c 128,-1,5
 120 880 120 880 120 923 c 0,6,7
 120 962 120 962 149 989.5 c 128,-1,8
 178 1017 178 1017 217.5 1017 c 128,-1,9
 257 1017 257 1017 286 990 c 128,-1,0
 315 963 315 963 315 923.5 c 128,-1,1
315 0 m 1,10,-1
 123 0 l 1,11,-1
 123 726 l 1,12,-1
 315 726 l 1,13,-1
 315 0 l 1,10,-1
EndSplineSet
EndChar
StartChar: j
Encoding: 106 106 67
Width: 260
Flags: W
LayerCount: 2
Fore
SplineSet
190 539 m 128,-1,1
 190 516 190 516 173 498.5 c 128,-1,2
 156 481 156 481 133 481 c 0,3,4
 108 481 108 481 92 497.5 c 128,-1,5
 76 514 76 514 76 539 c 0,6,7
 76 562 76 562 92 578 c 128,-1,8
 108 594 108 594 133 594 c 0,9,10
 156 594 156 594 173 578 c 128,-1,0
 190 562 190 562 190 539 c 128,-1,1
188 14 m 2,11,12
 188 -50 188 -50 177 -83.5 c 128,-1,13
 166 -117 166 -117 137 -143 c 0,14,15
 93 -182 93 -182 6 -188 c 1,16,-1
 6 -90 l 1,17,18
 51 -87 51 -87 63.5 -66.5 c 128,-1,19
 76 -46 76 -46 76 14 c 2,20,-1
 76 426 l 1,21,-1
 188 426 l 1,22,-1
 188 14 l 2,11,12
EndSplineSet
EndChar
StartChar: k
Encoding: 107 107 68
Width: 847
VWidth: 1754
Flags: W
LayerCount: 2
Fore
SplineSet
817 0 m 1,0,-1
 606 0 l 1,1,-1
 435 348 l 1,2,-1
 308 214 l 1,3,-1
 308 0 l 1,4,-1
 120 0 l 1,5,-1
 120 951 l 1,6,-1
 308 1017 l 1,7,-1
 308 478 l 1,8,-1
 543 726 l 1,9,-1
 807 726 l 1,10,-1
 579 495 l 1,11,-1
 817 0 l 1,0,-1
EndSplineSet
EndChar
StartChar: l
Encoding: 108 108 69
Width: 428
VWidth: 1754
Flags: W
LayerCount: 2
Fore
SplineSet
308 0 m 1,0,-1
 120 0 l 1,1,-1
 120 944 l 1,2,-1
 308 1017 l 1,3,-1
 308 0 l 1,0,-1
EndSplineSet
EndChar
StartChar: m
Encoding: 109 109 70
Width: 1415
VWidth: 1754
Flags: W
LayerCount: 2
Fore
SplineSet
1295 0 m 1,0,-1
 1105 0 l 1,1,-1
 1105 435 l 2,2,3
 1105 495 1105 495 1064 532 c 128,-1,4
 1023 569 1023 569 957.5 569 c 128,-1,5
 892 569 892 569 846 531 c 128,-1,6
 800 493 800 493 800 442 c 2,7,-1
 800 0 l 1,8,-1
 613 0 l 1,9,-1
 613 435 l 2,10,11
 613 492 613 492 567.5 530.5 c 128,-1,12
 522 569 522 569 456 569 c 0,13,14
 391 569 391 569 349.5 532 c 0,15,16
 308 494 308 494 308 438 c 2,17,-1
 308 0 l 1,18,-1
 120 0 l 1,19,-1
 120 730 l 1,20,-1
 308 730 l 1,21,-1
 308 683 l 1,22,23
 378 743 378 743 526 743 c 0,24,25
 666 743 666 743 743 670 c 1,26,27
 827 744 827 744 990 743 c 0,28,29
 1130 743 1130 743 1212.5 676.5 c 128,-1,30
 1295 610 1295 610 1295 502 c 2,31,-1
 1295 0 l 1,0,-1
EndSplineSet
EndChar
StartChar: n
Encoding: 110 110 71
Width: 573
Flags: W
LayerCount: 2
Fore
SplineSet
504 0 m 1,0,-1
 393 0 l 1,1,-1
 393 233 l 2,2,3
 393 291 393 291 365 311.5 c 128,-1,4
 337 332 337 332 287 332 c 0,5,6
 239 332 239 332 209.5 311.5 c 128,-1,7
 180 291 180 291 180 229 c 2,8,-1
 180 0 l 1,9,-1
 70 0 l 1,10,-1
 70 426 l 1,11,-1
 180 426 l 1,12,-1
 180 399 l 1,13,14
 215 432 215 432 315 432 c 0,15,16
 402 432 402 432 453 393.5 c 128,-1,17
 504 355 504 355 504 276 c 2,18,-1
 504 0 l 1,0,-1
EndSplineSet
EndChar
StartChar: o
Encoding: 111 111 72
Width: 559
Flags: W
LayerCount: 2
Fore
SplineSet
512 213 m 0,0,1
 512 119 512 119 444.5 55.5 c 128,-1,2
 377 -8 377 -8 279 -8 c 0,3,4
 182 -8 182 -8 114.5 56.5 c 128,-1,5
 47 121 47 121 47 213 c 128,-1,6
 47 305 47 305 114.5 368.5 c 128,-1,7
 182 432 182 432 279 432 c 0,8,9
 377 432 377 432 444.5 368.5 c 128,-1,10
 512 305 512 305 512 213 c 0,0,1
399 213 m 128,-1,12
 399 262 399 262 363 295 c 128,-1,13
 327 328 327 328 279 328 c 0,14,15
 232 328 232 328 196 295 c 128,-1,16
 160 262 160 262 160 213 c 0,17,18
 160 162 160 162 195.5 130 c 128,-1,19
 231 98 231 98 279 98 c 128,-1,20
 327 98 327 98 363 131 c 128,-1,11
 399 164 399 164 399 213 c 128,-1,12
EndSplineSet
EndChar
StartChar: p
Encoding: 112 112 73
Width: 579
Flags: W
LayerCount: 2
Fore
SplineSet
532 213 m 0,0,1
 532 119 532 119 465.5 55.5 c 128,-1,2
 399 -8 399 -8 301 -8 c 0,3,4
 236 -8 236 -8 182 20 c 1,5,-1
 182 -135 l 1,6,-1
 70 -174 l 1,7,-1
 70 424 l 1,8,-1
 182 424 l 1,9,-1
 182 401 l 1,10,11
 196 412 196 412 229.5 422 c 128,-1,12
 263 432 263 432 297 432 c 0,13,14
 406 433 406 433 469 371 c 128,-1,15
 532 309 532 309 532 213 c 0,0,1
422 211 m 128,-1,17
 422 270 422 270 379 301.5 c 128,-1,18
 336 333 336 333 279.5 328 c 128,-1,19
 223 323 223 323 182 287 c 1,20,-1
 182 137 l 1,21,22
 223 104 223 104 279.5 98.5 c 128,-1,23
 336 93 336 93 379 122.5 c 128,-1,16
 422 152 422 152 422 211 c 128,-1,17
EndSplineSet
EndChar
StartChar: q
Encoding: 113 113 74
Width: 993
VWidth: 1754
Flags: W
LayerCount: 2
Fore
SplineSet
873 726 m 1,0,-1
 873 -228 l 1,1,-1
 679 -298 l 1,2,-1
 679 34 l 1,3,4
 587 -14 587 -14 480 -14 c 0,5,6
 312 -14 312 -14 196 95 c 128,-1,7
 80 204 80 204 80 365 c 0,8,9
 80 529 80 529 188.5 635.5 c 128,-1,10
 297 742 297 742 484 740 c 0,11,12
 544 740 544 740 598.5 723 c 128,-1,13
 653 706 653 706 679 687 c 1,14,-1
 679 726 l 1,15,-1
 873 726 l 1,0,-1
679 235 m 1,16,-1
 679 498 l 1,17,18
 590 555 590 555 495 560 c 128,-1,19
 400 565 400 565 335 513 c 128,-1,20
 270 461 270 461 270 361 c 0,21,22
 270 260 270 260 342.5 209 c 128,-1,23
 415 158 415 158 512 167.5 c 128,-1,24
 609 177 609 177 679 235 c 1,16,-1
EndSplineSet
EndChar
StartChar: r
Encoding: 114 114 75
Width: 376
Flags: W
LayerCount: 2
Fore
SplineSet
358 408 m 1,0,-1
 326 301 l 1,1,2
 304 326 304 326 270 326 c 0,3,4
 226 326 226 326 204 292 c 128,-1,5
 182 258 182 258 182 213 c 2,6,-1
 182 0 l 1,7,-1
 70 0 l 1,8,-1
 70 426 l 1,9,-1
 182 426 l 1,10,-1
 182 395 l 1,11,12
 214 432 214 432 279 432 c 0,13,14
 325 432 325 432 358 408 c 1,0,-1
EndSplineSet
EndChar
StartChar: s
Encoding: 115 115 76
Width: 871
VWidth: 1754
Flags: W
LayerCount: 2
Fore
SplineSet
803 204 m 0,0,1
 803 101 803 101 708 43.5 c 128,-1,2
 613 -14 613 -14 445 -14 c 0,3,4
 226 -14 226 -14 70 53 c 1,5,-1
 151 211 l 1,6,7
 334 158 334 158 435 158 c 0,8,9
 617 158 617 158 617 211 c 0,10,11
 617 240 617 240 588.5 252 c 128,-1,12
 560 264 560 264 464 286 c 0,13,14
 449 289 449 289 442 291 c 0,15,16
 262 327 262 327 187 379 c 0,17,18
 91 442 91 442 91 540 c 0,19,20
 91 634 91 634 182.5 688.5 c 128,-1,21
 274 743 274 743 432 743 c 0,22,23
 607 743 607 743 773 670 c 1,24,-1
 690 512 l 1,25,-1
 687 514 l 2,26,27
 684 516 684 516 675 519 c 128,-1,28
 666 522 666 522 654 526.5 c 128,-1,29
 642 531 642 531 627.5 535.5 c 128,-1,30
 613 540 613 540 596 545 c 128,-1,31
 579 550 579 550 559.5 555 c 128,-1,32
 540 560 540 560 520 563.5 c 128,-1,33
 500 567 500 567 478 570.5 c 128,-1,34
 456 574 456 574 435 576 c 0,35,36
 366 581 366 581 325 568 c 128,-1,37
 284 555 284 555 281 529 c 1,38,39
 281 503 281 503 318 488.5 c 128,-1,40
 355 474 355 474 452 456 c 0,41,42
 635 420 635 420 719 361.5 c 128,-1,43
 803 303 803 303 803 204 c 0,0,1
EndSplineSet
EndChar
StartChar: t
Encoding: 116 116 77
Width: 544
VWidth: 1754
Flags: W
LayerCount: 2
Fore
SplineSet
504 214 m 1,0,-1
 472 21 l 1,1,2
 405 -17 405 -17 343 -17 c 0,3,4
 256 -17 256 -17 203 43.5 c 128,-1,5
 150 104 150 104 150 207 c 2,6,-1
 150 558 l 1,7,-1
 30 558 l 1,8,-1
 30 726 l 1,9,-1
 150 726 l 1,10,-1
 150 951 l 1,11,-1
 340 1017 l 1,12,-1
 340 726 l 1,13,-1
 494 726 l 1,14,-1
 494 558 l 1,15,-1
 340 558 l 1,16,-1
 340 284 l 2,17,18
 340 174 340 174 424 175 c 0,19,20
 459 175 459 175 504 214 c 1,0,-1
EndSplineSet
EndChar
StartChar: u
Encoding: 117 117 78
Width: 573
Flags: W
LayerCount: 2
Fore
SplineSet
504 0 m 1,0,-1
 391 0 l 1,1,-1
 391 23 l 1,2,3
 358 -8 358 -8 258 -8 c 0,4,5
 171 -8 171 -8 120.5 31.5 c 128,-1,6
 70 71 70 71 70 150 c 2,7,-1
 70 426 l 1,8,-1
 180 426 l 1,9,-1
 180 190 l 2,10,11
 180 131 180 131 208.5 110.5 c 128,-1,12
 237 90 237 90 287 90 c 0,13,14
 335 90 335 90 363 110.5 c 128,-1,15
 391 131 391 131 391 193 c 2,16,-1
 391 426 l 1,17,-1
 504 426 l 1,18,-1
 504 0 l 1,0,-1
EndSplineSet
EndChar
StartChar: v
Encoding: 118 118 79
Width: 879
VWidth: 1754
Flags: W
LayerCount: 2
Fore
SplineSet
859 730 m 1,0,-1
 545 0 l 1,1,-1
 330 0 l 1,2,-1
 20 730 l 1,3,-1
 227 730 l 1,4,-1
 437 235 l 1,5,-1
 658 730 l 1,6,-1
 859 730 l 1,0,-1
EndSplineSet
EndChar
StartChar: w
Encoding: 119 119 80
Width: 1187
VWidth: 1754
Flags: W
LayerCount: 2
Fore
SplineSet
1167 730 m 1,0,-1
 922 0 l 1,1,-1
 715 0 l 1,2,-1
 592 442 l 1,3,-1
 472 0 l 1,4,-1
 266 0 l 1,5,-1
 20 730 l 1,6,-1
 217 730 l 1,7,-1
 364 308 l 1,8,-1
 480 730 l 1,9,-1
 708 730 l 1,10,-1
 823 305 l 1,11,-1
 963 730 l 1,12,-1
 1167 730 l 1,0,-1
EndSplineSet
EndChar
StartChar: x
Encoding: 120 120 81
Width: 534
Flags: W
LayerCount: 2
Fore
SplineSet
522 0 m 1,0,-1
 383 0 l 1,1,-1
 268 147 l 1,2,-1
 154 0 l 1,3,-1
 12 0 l 1,4,-1
 197 240 l 1,5,-1
 53 426 l 1,6,-1
 195 426 l 1,7,-1
 268 332 l 1,8,-1
 340 426 l 1,9,-1
 481 426 l 1,10,-1
 338 240 l 1,11,-1
 522 0 l 1,0,-1
EndSplineSet
EndChar
StartChar: y
Encoding: 121 121 82
Width: 959
VWidth: 1754
Flags: W
LayerCount: 2
Fore
SplineSet
939 730 m 1,0,-1
 487 -277 l 1,1,-1
 266 -277 l 1,2,-1
 391 0 l 1,3,-1
 20 730 l 1,4,-1
 237 730 l 1,5,-1
 497 228 l 1,6,-1
 725 730 l 1,7,-1
 939 730 l 1,0,-1
EndSplineSet
EndChar
StartChar: z
Encoding: 122 122 83
Width: 860
VWidth: 1754
Flags: W
LayerCount: 2
Fore
SplineSet
810 0 m 1,0,-1
 50 0 l 1,1,-1
 50 158 l 1,2,-1
 495 555 l 1,3,-1
 74 555 l 1,4,-1
 74 730 l 1,5,-1
 810 730 l 1,6,-1
 810 586 l 1,7,-1
 348 171 l 1,8,-1
 810 171 l 1,9,-1
 810 0 l 1,0,-1
EndSplineSet
EndChar
StartChar: cent
Encoding: 162 162 84
Width: 880
VWidth: 1754
Flags: W
LayerCount: 2
Fore
SplineSet
831 288 m 1,0,1
 785 213 785 213 709.5 164.5 c 128,-1,2
 634 116 634 116 562 108 c 1,3,-1
 562 -63 l 1,4,-1
 375 -63 l 1,5,-1
 375 113 l 1,6,7
 253 127 253 127 167 243.5 c 128,-1,8
 81 360 81 360 81 529 c 0,9,10
 81 695 81 695 165.5 812.5 c 128,-1,11
 250 930 250 930 375 940 c 1,12,-1
 375 1084 l 1,13,-1
 562 1084 l 1,14,-1
 562 944 l 1,15,16
 726 929 726 929 831 769 c 1,17,-1
 677 687 l 1,18,19
 643 737 643 737 601.5 760 c 128,-1,20
 560 783 560 783 473 783 c 0,21,22
 369 783 369 783 316.5 711 c 128,-1,23
 264 639 264 639 267 529 c 0,24,25
 270 418 270 418 322.5 344.5 c 128,-1,26
 375 271 375 271 485 271 c 0,27,28
 523 271 523 271 546.5 273.5 c 128,-1,29
 570 276 570 276 590 287 c 128,-1,30
 610 298 610 298 618.5 304 c 128,-1,31
 627 310 627 310 646.5 332.5 c 128,-1,32
 666 355 666 355 677 365 c 1,33,-1
 831 288 l 1,0,1
EndSplineSet
EndChar
StartChar: dieresis
Encoding: 168 168 125
Width: 601
VWidth: 1754
Flags: W
LayerCount: 2
Fore
SplineSet
255 920 m 0,0,1
 255 879 255 879 227 849.5 c 128,-1,2
 199 820 199 820 158 820 c 0,3,4
 119 820 119 820 91 849.5 c 128,-1,5
 63 879 63 879 63 920 c 0,6,7
 63 963 63 963 90.5 990 c 128,-1,8
 118 1017 118 1017 158 1017 c 0,9,10
 201 1017 201 1017 228 990 c 128,-1,11
 255 963 255 963 255 920 c 0,0,1
440 1017 m 0,13,14
 401 1017 401 1017 373.5 990 c 128,-1,15
 346 963 346 963 346 920 c 0,16,17
 346 879 346 879 373.5 849.5 c 128,-1,18
 401 820 401 820 440 820 c 0,19,20
 481 820 481 820 509.5 849.5 c 128,-1,21
 538 879 538 879 538 920 c 0,22,23
 538 963 538 963 510.5 990 c 128,-1,12
 483 1017 483 1017 440 1017 c 0,13,14
EndSplineSet
EndChar
StartChar: acute
Encoding: 180 180 126
Width: 236
Flags: W
LayerCount: 2
Fore
SplineSet
139 584 m 1,0,-1
 246 584 l 1,1,-1
 158 480 l 1,2,-1
 75 480 l 1,3,-1
 139 584 l 1,0,-1
EndSplineSet
EndChar
StartChar: Ccedilla
Encoding: 199 199 132
Width: 1108
VWidth: 1754
Flags: W
LayerCount: 2
Fore
SplineSet
519 -9 m 1,0,1
 367 17 367 17 250 134 c 0,2,3
 98 285 98 285 98 498 c 0,4,5
 98 716 98 716 249.5 866.5 c 128,-1,6
 401 1017 401 1017 620 1017 c 0,7,8
 748 1017 748 1017 847 965 c 128,-1,9
 946 913 946 913 1038 796 c 1,10,-1
 884 687 l 1,11,12
 773 824 773 824 613 824 c 0,13,14
 478 824 478 824 383 729.5 c 128,-1,15
 288 635 288 635 288 502 c 0,16,17
 288 365 288 365 383 270 c 128,-1,18
 478 175 478 175 613 175 c 0,19,20
 728 175 728 175 824 248 c 1,21,22
 857 281 857 281 884 312 c 1,23,-1
 1038 207 l 1,24,25
 968 115 968 115 908 77 c 1,26,27
 776 -17 776 -17 613 -17 c 2,28,-1
 584 -17 l 1,29,-1
 577 -39 l 1,30,31
 666 -8 666 -8 697 -67 c 0,32,33
 730 -130 730 -130 677 -188 c 0,34,35
 653 -215 653 -215 582 -216 c 0,36,37
 501 -214 501 -214 425 -173 c 1,38,-1
 449 -116 l 1,39,40
 499 -147 499 -147 555 -146 c 0,41,42
 594 -144 594 -144 605 -127 c 0,43,44
 614 -113 614 -113 600 -96 c 0,45,46
 583 -74 583 -74 541 -104 c 1,47,-1
 500 -74 l 1,48,-1
 519 -9 l 1,0,1
EndSplineSet
EndChar
StartChar: ccedilla
Encoding: 231 231 157
Width: 830
VWidth: 1754
Flags: W
LayerCount: 2
Fore
SplineSet
778 612 m 1,0,-1
 779 610 l 1,1,-1
 779 613 l 1,2,-1
 778 612 l 1,0,-1
385 -3 m 1,3,4
 277 19 277 19 197 98 c 1,5,6
 81 208 81 208 81 365 c 128,-1,7
 81 522 81 522 196.5 631 c 128,-1,8
 312 740 312 740 478 740 c 0,9,10
 665 740 665 740 778 612 c 1,11,-1
 663 459 l 1,12,13
 589 562 589 562 478 562 c 0,14,15
 397 562 397 562 335.5 505.5 c 128,-1,16
 274 449 274 449 274 365 c 0,17,18
 274 278 274 278 335 223 c 128,-1,19
 396 168 396 168 478 168 c 0,20,21
 594 168 594 168 653 252 c 1,22,-1
 783 120 l 1,23,24
 667 -14 667 -14 478 -14 c 2,25,-1
 449 -14 l 1,26,-1
 442 -39 l 1,27,28
 531 -8 531 -8 562 -67 c 0,29,30
 595 -130 595 -130 541 -188 c 0,31,32
 517 -215 517 -215 447 -216 c 0,33,34
 366 -214 366 -214 289 -173 c 1,35,-1
 313 -116 l 1,36,37
 363 -147 363 -147 420 -146 c 0,38,39
 459 -144 459 -144 469 -127 c 0,40,41
 478 -113 478 -113 464 -96 c 0,42,43
 447 -74 447 -74 406 -104 c 1,44,-1
 365 -74 l 1,45,-1
 385 -3 l 1,3,4
EndSplineSet
EndChar
StartChar: dotlessi
Encoding: 305 305 178
Width: 433
VWidth: 1754
Flags: W
LayerCount: 2
Fore
SplineSet
315 0 m 1,0,-1
 123 0 l 1,1,-1
 123 726 l 1,2,-1
 315 726 l 1,3,-1
 315 0 l 1,0,-1
EndSplineSet
EndChar
StartChar: circumflex
Encoding: 710 710 179
Width: 731
VWidth: 1754
Flags: W
LayerCount: 2
Fore
SplineSet
367 896 m 1,0,-1
 219 805 l 1,1,-1
 94 805 l 1,2,-1
 274 1000 l 1,3,-1
 457 1000 l 1,4,-1
 637 805 l 1,5,-1
 512 805 l 1,6,-1
 367 896 l 1,0,-1
EndSplineSet
EndChar
StartChar: tilde
Encoding: 732 732 180
Width: 399
Flags: W
LayerCount: 2
Fore
SplineSet
62 494 m 1,0,1
 62 546 62 546 88 576 c 1,2,3
 111 601 111 601 143 601 c 256,4,5
 175 601 175 601 203 583 c 256,6,7
 231 565 231 565 242 565 c 0,8,9
 261 565 261 565 264 600 c 1,10,-1
 329 600 l 1,11,12
 329 554 329 554 308 525 c 0,13,14
 285 492 285 492 245 492 c 0,15,16
 220 492 220 492 189 511 c 0,17,18
 158 529 158 529 150 529 c 0,19,20
 129 529 129 529 127 494 c 1,21,-1
 62 494 l 1,0,1
EndSplineSet
EndChar
StartChar: fraction
Encoding: 8260 8260 105
Width: 710
VWidth: 1754
Flags: W
LayerCount: 2
Fore
SplineSet
711 1002 m 1,0,-1
 134 0 l 1,1,-1
 0 0 l 1,2,-1
 577 1002 l 1,3,-1
 711 1002 l 1,0,-1
EndSplineSet
EndChar
StartChar: uni2070
Encoding: 8304 8304 85
Width: 775
VWidth: 1754
Flags: W
LayerCount: 2
Fore
SplineSet
711 671 m 0,0,1
 711 519 711 519 621 419.5 c 128,-1,2
 531 320 531 320 388 320 c 128,-1,3
 245 320 245 320 155 418.5 c 128,-1,4
 65 517 65 517 65 668 c 256,5,6
 65 819 65 819 155 915.5 c 128,-1,7
 245 1012 245 1012 389 1012 c 256,8,9
 533 1012 533 1012 622 915 c 128,-1,10
 711 818 711 818 711 671 c 0,0,1
584 668 m 0,11,12
 584 767 584 767 530 825.5 c 128,-1,13
 476 884 476 884 388 884 c 128,-1,14
 300 884 300 884 246 824 c 128,-1,15
 192 764 192 764 192 668 c 0,16,17
 192 570 192 570 246.5 507.5 c 128,-1,18
 301 445 301 445 387.5 445 c 128,-1,19
 474 445 474 445 529 508.5 c 128,-1,20
 584 572 584 572 584 668 c 0,11,12
EndSplineSet
EndChar
StartChar: uni2071
Encoding: 8305 8305 86
Width: 407
VWidth: 1754
Flags: W
LayerCount: 2
Fore
SplineSet
313 334 m 1,0,-1
 188 334 l 1,1,-1
 188 822 l 1,2,-1
 94 822 l 1,3,-1
 94 916 l 1,4,5
 137 918 137 918 170.5 941 c 128,-1,6
 204 964 204 964 218 1000 c 1,7,-1
 313 1000 l 1,8,-1
 313 334 l 1,0,-1
EndSplineSet
EndChar
StartChar: uni2072
Encoding: 8306 8306 87
Width: 772
VWidth: 1754
Flags: W
LayerCount: 2
Fore
SplineSet
694 334 m 1,0,-1
 82 334 l 1,1,2
 79 415 79 415 103.5 479 c 128,-1,3
 128 543 128 543 170 581.5 c 128,-1,4
 212 620 212 620 264.5 649 c 128,-1,5
 317 678 317 678 369 697 c 128,-1,6
 421 716 421 716 465 733 c 128,-1,7
 509 750 509 750 535.5 770.5 c 128,-1,8
 562 791 562 791 560 819 c 1,9,10
 560 867 560 867 485.5 882.5 c 128,-1,11
 411 898 411 898 318.5 875.5 c 128,-1,12
 226 853 226 853 178 805 c 1,13,-1
 91 901 l 1,14,15
 190 970 190 970 299.5 996.5 c 128,-1,16
 409 1023 409 1023 493 1007.5 c 128,-1,17
 577 992 577 992 633 945 c 128,-1,18
 689 898 689 898 690 832 c 0,19,20
 690 789 690 789 674.5 754 c 128,-1,21
 659 719 659 719 638.5 696 c 128,-1,22
 618 673 618 673 577 650 c 128,-1,23
 536 627 536 627 508.5 616 c 128,-1,24
 481 605 481 605 430 586 c 0,25,26
 423 584 423 584 401.5 575.5 c 128,-1,27
 380 567 380 567 372.5 564.5 c 128,-1,28
 365 562 365 562 345 553.5 c 128,-1,29
 325 545 325 545 316.5 540.5 c 128,-1,30
 308 536 308 536 293.5 528.5 c 128,-1,31
 279 521 279 521 271.5 514 c 128,-1,32
 264 507 264 507 254.5 498.5 c 128,-1,33
 245 490 245 490 239 480.5 c 128,-1,34
 233 471 233 471 230 461 c 1,35,-1
 694 461 l 1,36,-1
 694 334 l 1,0,-1
EndSplineSet
EndChar
StartChar: uni2073
Encoding: 8307 8307 88
Width: 441
Flags: W
LayerCount: 2
Fore
SplineSet
403 315 m 0,0,1
 403 287 403 287 388.5 260.5 c 128,-1,2
 374 234 374 234 349 217 c 0,3,4
 306 188 306 188 233 188 c 0,5,6
 133 188 133 188 71 234 c 0,7,8
 59 242 59 242 38 263 c 1,9,-1
 89 315 l 1,10,11
 144 262 144 262 229 262 c 0,12,13
 277 262 277 262 304 276.5 c 128,-1,14
 331 291 331 291 331 318 c 0,15,16
 331 332 331 332 323 344.5 c 128,-1,17
 315 357 315 357 303 363 c 0,18,19
 291 370 291 370 265 370 c 2,20,-1
 223 370 l 1,21,-1
 223 444 l 1,22,-1
 265 444 l 2,23,24
 307 444 307 444 307 475 c 0,25,26
 307 496 307 496 281 508 c 1,27,28
 261 516 261 516 225 516 c 0,29,30
 158 516 158 516 107 478 c 1,31,-1
 63 535 l 1,32,33
 136 591 136 591 225 591 c 0,34,35
 293 591 293 591 336 559 c 128,-1,36
 379 527 379 527 379 478 c 0,37,38
 379 440 379 440 349 408 c 1,39,40
 403 374 403 374 403 315 c 0,0,1
EndSplineSet
EndChar
StartChar: uni2074
Encoding: 8308 8308 89
Width: 796
VWidth: 1754
Flags: W
LayerCount: 2
Fore
SplineSet
702 461 m 1,0,-1
 622 461 l 1,1,-1
 622 334 l 1,2,-1
 497 334 l 1,3,-1
 497 461 l 1,4,-1
 26 461 l 1,5,-1
 26 582 l 1,6,-1
 497 1000 l 1,7,-1
 622 1000 l 1,8,-1
 622 582 l 1,9,-1
 702 582 l 1,10,-1
 702 461 l 1,0,-1
497 582 m 1,11,-1
 497 839 l 1,12,-1
 202 582 l 1,13,-1
 497 582 l 1,11,-1
EndSplineSet
EndChar
StartChar: uni2075
Encoding: 8309 8309 90
Width: 441
Flags: W
LayerCount: 2
Fore
SplineSet
403 329 m 0,0,1
 403 295 403 295 386 264.5 c 128,-1,2
 369 234 369 234 340 216 c 0,3,4
 295 188 295 188 224 188 c 0,5,6
 122 188 122 188 38 221 c 1,7,-1
 67 289 l 1,8,9
 137 263 137 263 224 263 c 0,10,11
 287 263 287 263 314 288 c 1,12,13
 331 306 331 306 331 329 c 0,14,15
 331 360 331 360 297 379 c 1,16,17
 265 394 265 394 227 394 c 0,18,19
 183 394 183 394 121 378 c 1,20,-1
 51 390 l 1,21,-1
 61 584 l 1,22,-1
 367 584 l 1,23,-1
 367 510 l 1,24,-1
 130 510 l 1,25,-1
 127 453 l 1,26,27
 168 468 168 468 224 468 c 0,28,29
 311 468 311 468 363 420 c 1,30,31
 403 385 403 385 403 329 c 0,0,1
EndSplineSet
EndChar
StartChar: uni2076
Encoding: 8310 8310 91
Width: 442
Flags: W
LayerCount: 2
Fore
SplineSet
404 312 m 0,0,1
 404 278 404 278 387 252.5 c 128,-1,2
 370 227 370 227 341.5 213.5 c 128,-1,3
 313 200 313 200 283 194 c 128,-1,4
 253 188 253 188 220 188 c 0,5,6
 38 188 38 188 38 358 c 0,7,8
 38 455 38 455 107.5 523 c 128,-1,9
 177 591 177 591 273 591 c 0,10,11
 303 591 303 591 337 580 c 1,12,-1
 317 509 l 1,13,14
 293 516 293 516 273 516 c 0,15,16
 229 516 229 516 190 495 c 128,-1,17
 151 474 151 474 131 438 c 1,18,19
 123 421 123 421 120 415 c 1,20,21
 163 431 163 431 229 431 c 0,22,23
 308 431 308 431 356 398.5 c 128,-1,24
 404 366 404 366 404 312 c 0,0,1
331 310 m 256,25,26
 331 332 331 332 302 346 c 128,-1,27
 273 360 273 360 224 360 c 0,28,29
 177 360 177 360 145 346 c 128,-1,30
 113 332 113 332 113 310 c 0,31,32
 113 289 113 289 145 276 c 128,-1,33
 177 263 177 263 223 263 c 0,34,35
 273 263 273 263 302 275.5 c 128,-1,36
 331 288 331 288 331 310 c 256,25,26
EndSplineSet
EndChar
StartChar: uni2077
Encoding: 8311 8311 92
Width: 395
Flags: W
LayerCount: 2
Fore
SplineSet
380 510 m 1,0,1
 353 486 353 486 338.5 470 c 128,-1,2
 324 454 324 454 308 430 c 0,3,4
 237 324 237 324 237 195 c 1,5,-1
 165 195 l 1,6,7
 165 373 165 373 277 510 c 1,8,-1
 15 510 l 1,9,-1
 15 584 l 1,10,-1
 380 584 l 1,11,-1
 380 510 l 1,0,1
EndSplineSet
EndChar
StartChar: uni2078
Encoding: 8312 8312 93
Width: 442
Flags: W
LayerCount: 2
Fore
SplineSet
404 318 m 0,0,1
 404 283 404 283 384.5 252.5 c 128,-1,2
 365 222 365 222 332 206 c 0,3,4
 296 188 296 188 220 188 c 0,5,6
 125 188 125 188 85 220 c 1,7,8
 38 256 38 256 38 315 c 0,9,10
 38 342 38 342 48.5 362.5 c 128,-1,11
 59 383 59 383 86 408 c 1,12,13
 56 441 56 441 56 480 c 0,14,15
 56 531 56 531 100.5 561 c 128,-1,16
 145 591 145 591 220 591 c 0,17,18
 294 591 294 591 340.5 560.5 c 128,-1,19
 387 530 387 530 387 479 c 0,20,21
 387 440 387 440 357 408 c 1,22,23
 404 367 404 367 404 318 c 0,0,1
314 480.5 m 128,-1,25
 314 516 314 516 221.5 516 c 128,-1,26
 129 516 129 516 129 480.5 c 128,-1,27
 129 445 129 445 220 445 c 0,28,24
 314 445 314 445 314 480.5 c 128,-1,25
332 318 m 0,29,30
 332 342 332 342 301.5 356.5 c 128,-1,31
 271 371 271 371 221 371 c 0,32,33
 169 371 169 371 140 356.5 c 128,-1,34
 111 342 111 342 111 315 c 0,35,36
 111 292 111 292 141.5 277.5 c 128,-1,37
 172 263 172 263 221 263 c 0,38,39
 237 263 237 263 253 265 c 128,-1,40
 269 267 269 267 288.5 272 c 128,-1,41
 308 277 308 277 320 289 c 128,-1,42
 332 301 332 301 332 318 c 0,29,30
EndSplineSet
EndChar
StartChar: uni2079
Encoding: 8313 8313 94
Width: 757
VWidth: 1754
Flags: W
LayerCount: 2
Fore
SplineSet
692 718 m 0,0,1
 692 552 692 552 573 436 c 128,-1,2
 454 320 454 320 289 320 c 0,3,4
 232 320 232 320 178 336 c 1,5,-1
 214 459 l 1,6,7
 272 442 272 442 289 442 c 0,8,9
 363 442 363 442 430.5 480.5 c 128,-1,10
 498 519 498 519 531 582 c 1,11,12
 541 596 541 596 550 620 c 1,13,14
 466 591 466 591 361 591 c 0,15,16
 227 591 227 591 146 646.5 c 128,-1,17
 65 702 65 702 65 795 c 0,18,19
 65 853 65 853 95 896.5 c 128,-1,20
 125 940 125 940 173 963.5 c 128,-1,21
 221 987 221 987 273 997 c 128,-1,22
 325 1007 325 1007 382 1007 c 0,23,24
 692 1007 692 1007 692 718 c 0,0,1
553 802 m 0,25,26
 553 836 553 836 502.5 858 c 128,-1,27
 452 880 452 880 375 880 c 0,28,29
 289 880 289 880 240.5 859.5 c 128,-1,30
 192 839 192 839 192 800 c 128,-1,31
 192 761 192 761 240.5 739.5 c 128,-1,32
 289 718 289 718 375 718 c 0,33,34
 457 718 457 718 505 740.5 c 128,-1,35
 553 763 553 763 553 802 c 0,25,26
EndSplineSet
EndChar
StartChar: uni2080
Encoding: 8320 8320 95
Width: 775
VWidth: 1754
Flags: W
LayerCount: 2
Fore
SplineSet
711 337 m 0,0,1
 711 185 711 185 621 85.5 c 128,-1,2
 531 -14 531 -14 388 -14 c 128,-1,3
 245 -14 245 -14 155 84.5 c 128,-1,4
 65 183 65 183 65 334 c 256,5,6
 65 485 65 485 155 581.5 c 128,-1,7
 245 678 245 678 389 678 c 256,8,9
 533 678 533 678 622 581 c 128,-1,10
 711 484 711 484 711 337 c 0,0,1
584 334 m 0,11,12
 584 433 584 433 530 491.5 c 128,-1,13
 476 550 476 550 388 550 c 128,-1,14
 300 550 300 550 246 490 c 128,-1,15
 192 430 192 430 192 334 c 0,16,17
 192 236 192 236 246.5 173.5 c 128,-1,18
 301 111 301 111 387.5 111 c 128,-1,19
 474 111 474 111 529 174.5 c 128,-1,20
 584 238 584 238 584 334 c 0,11,12
EndSplineSet
EndChar
StartChar: uni2081
Encoding: 8321 8321 96
Width: 407
VWidth: 1754
Flags: W
LayerCount: 2
Fore
SplineSet
313 0 m 1,0,-1
 188 0 l 1,1,-1
 188 488 l 1,2,-1
 94 488 l 1,3,-1
 94 582 l 1,4,5
 137 584 137 584 170.5 607 c 128,-1,6
 204 630 204 630 218 666 c 1,7,-1
 313 666 l 1,8,-1
 313 0 l 1,0,-1
EndSplineSet
EndChar
StartChar: uni2082
Encoding: 8322 8322 97
Width: 451
Flags: W
LayerCount: 2
Fore
SplineSet
405 0 m 1,0,-1
 48 0 l 1,1,2
 46 47 46 47 60.5 84.5 c 128,-1,3
 75 122 75 122 99.5 144.5 c 128,-1,4
 124 167 124 167 154.5 184 c 128,-1,5
 185 201 185 201 215.5 212 c 128,-1,6
 246 223 246 223 271.5 233 c 128,-1,7
 297 243 297 243 312.5 255 c 128,-1,8
 328 267 328 267 327 283 c 1,9,10
 327 311 327 311 283.5 320 c 128,-1,11
 240 329 240 329 186 316 c 128,-1,12
 132 303 132 303 104 275 c 1,13,-1
 53 331 l 1,14,15
 111 371 111 371 175 386.5 c 128,-1,16
 239 402 239 402 288 393 c 128,-1,17
 337 384 337 384 369.5 356.5 c 128,-1,18
 402 329 402 329 403 291 c 0,19,20
 403 266 403 266 394 245.5 c 128,-1,21
 385 225 385 225 373 211.5 c 128,-1,22
 361 198 361 198 337 184.5 c 128,-1,23
 313 171 313 171 297 164.5 c 128,-1,24
 281 158 281 158 251 147 c 0,25,26
 247 146 247 146 234.5 141 c 128,-1,27
 222 136 222 136 217.5 134.5 c 128,-1,28
 213 133 213 133 201.5 128 c 128,-1,29
 190 123 190 123 185 120.5 c 128,-1,30
 180 118 180 118 171.5 113.5 c 128,-1,31
 163 109 163 109 158.5 105 c 128,-1,32
 154 101 154 101 148.5 96 c 128,-1,33
 143 91 143 91 139.5 85.5 c 128,-1,34
 136 80 136 80 134 74 c 1,35,-1
 405 74 l 1,36,-1
 405 0 l 1,0,-1
EndSplineSet
EndChar
StartChar: uni2083
Encoding: 8323 8323 98
Width: 755
VWidth: 1754
Flags: W
LayerCount: 2
Fore
SplineSet
690 206 m 0,0,1
 690 158 690 158 665.5 112.5 c 128,-1,2
 641 67 641 67 598 38 c 0,3,4
 524 -12 524 -12 399 -12 c 0,5,6
 228 -12 228 -12 122 67 c 0,7,8
 101 81 101 81 65 116 c 1,9,-1
 152 206 l 1,10,11
 246 115 246 115 392 115 c 0,12,13
 474 115 474 115 520.5 139.5 c 128,-1,14
 567 164 567 164 567 211 c 0,15,16
 567 235 567 235 553.5 256 c 128,-1,17
 540 277 540 277 519 288 c 0,18,19
 498 300 498 300 454 300 c 2,20,-1
 382 300 l 1,21,-1
 382 427 l 1,22,-1
 454 427 l 2,23,24
 526 427 526 427 526 480 c 0,25,26
 526 516 526 516 481 536 c 1,27,28
 447 550 447 550 385 550 c 0,29,30
 270 550 270 550 183 485 c 1,31,-1
 108 582 l 1,32,33
 233 678 233 678 385 678 c 0,34,35
 501 678 501 678 575 623.5 c 128,-1,36
 649 569 649 569 649 485 c 0,37,38
 649 420 649 420 598 365 c 1,39,40
 690 307 690 307 690 206 c 0,0,1
EndSplineSet
EndChar
StartChar: uni2084
Encoding: 8324 8324 99
Width: 465
Flags: W
LayerCount: 2
Fore
SplineSet
410 74 m 1,0,-1
 363 74 l 1,1,-1
 363 0 l 1,2,-1
 290 0 l 1,3,-1
 290 74 l 1,4,-1
 15 74 l 1,5,-1
 15 145 l 1,6,-1
 290 389 l 1,7,-1
 363 389 l 1,8,-1
 363 145 l 1,9,-1
 410 145 l 1,10,-1
 410 74 l 1,0,-1
290 145 m 1,11,-1
 290 295 l 1,12,-1
 118 145 l 1,13,-1
 290 145 l 1,11,-1
EndSplineSet
EndChar
StartChar: uni2085
Encoding: 8325 8325 100
Width: 441
Flags: W
LayerCount: 2
Fore
SplineSet
403 134 m 0,0,1
 403 100 403 100 386 69.5 c 128,-1,2
 369 39 369 39 340 21 c 0,3,4
 295 -7 295 -7 224 -7 c 0,5,6
 122 -7 122 -7 38 26 c 1,7,-1
 67 94 l 1,8,9
 137 68 137 68 224 68 c 0,10,11
 287 68 287 68 314 93 c 1,12,13
 331 111 331 111 331 134 c 0,14,15
 331 165 331 165 297 184 c 1,16,17
 265 199 265 199 227 199 c 0,18,19
 183 199 183 199 121 183 c 1,20,-1
 51 195 l 1,21,-1
 61 389 l 1,22,-1
 367 389 l 1,23,-1
 367 315 l 1,24,-1
 130 315 l 1,25,-1
 127 258 l 1,26,27
 168 273 168 273 224 273 c 0,28,29
 311 273 311 273 363 225 c 1,30,31
 403 190 403 190 403 134 c 0,0,1
EndSplineSet
EndChar
StartChar: uni2086
Encoding: 8326 8326 101
Width: 757
VWidth: 1754
Flags: W
LayerCount: 2
Fore
SplineSet
692 200 m 0,0,1
 692 142 692 142 663 98.5 c 128,-1,2
 634 55 634 55 585 32 c 128,-1,3
 536 9 536 9 484.5 -1.5 c 128,-1,4
 433 -12 433 -12 377 -12 c 0,5,6
 65 -12 65 -12 65 279 c 0,7,8
 65 445 65 445 184 561.5 c 128,-1,9
 303 678 303 678 468 678 c 0,10,11
 519 678 519 678 577 659 c 1,12,-1
 543 538 l 1,13,14
 502 550 502 550 468 550 c 0,15,16
 393 550 393 550 326 514 c 128,-1,17
 259 478 259 478 224 416 c 1,18,19
 210 387 210 387 206 377 c 1,20,21
 280 404 280 404 392 404 c 0,22,23
 527 404 527 404 609.5 348 c 128,-1,24
 692 292 692 292 692 200 c 0,0,1
567 197 m 256,25,26
 567 235 567 235 517.5 259 c 128,-1,27
 468 283 468 283 384 283 c 0,28,29
 303 283 303 283 248.5 259 c 128,-1,30
 194 235 194 235 194 197 c 0,31,32
 194 161 194 161 248.5 138.5 c 128,-1,33
 303 116 303 116 382 116 c 0,34,35
 468 116 468 116 517.5 137.5 c 128,-1,36
 567 159 567 159 567 197 c 256,25,26
EndSplineSet
EndChar
StartChar: uni2087
Encoding: 8327 8327 102
Width: 395
Flags: W
LayerCount: 2
Fore
SplineSet
380 315 m 1,0,1
 353 291 353 291 338.5 275 c 128,-1,2
 324 259 324 259 308 235 c 0,3,4
 237 129 237 129 237 0 c 1,5,-1
 165 0 l 1,6,7
 165 178 165 178 277 315 c 1,8,-1
 15 315 l 1,9,-1
 15 389 l 1,10,-1
 380 389 l 1,11,-1
 380 315 l 1,0,1
EndSplineSet
EndChar
StartChar: uni2088
Encoding: 8328 8328 103
Width: 757
VWidth: 1754
Flags: W
LayerCount: 2
Fore
SplineSet
692 211 m 0,0,1
 692 151 692 151 658.5 98.5 c 128,-1,2
 625 46 625 46 569 19 c 0,3,4
 507 -12 507 -12 377 -12 c 0,5,6
 214 -12 214 -12 146 43 c 1,7,8
 65 105 65 105 65 206 c 0,9,10
 65 252 65 252 83 287 c 128,-1,11
 101 322 101 322 147 365 c 1,12,13
 96 422 96 422 96 488 c 0,14,15
 96 575 96 575 172 626.5 c 128,-1,16
 248 678 248 678 377 678 c 0,17,18
 504 678 504 678 583.5 626 c 128,-1,19
 663 574 663 574 663 486 c 0,20,21
 663 419 663 419 612 365 c 1,22,23
 692 295 692 295 692 211 c 0,0,1
538 489 m 128,-1,25
 538 550 538 550 379.5 550 c 128,-1,26
 221 550 221 550 221 489 c 128,-1,27
 221 428 221 428 377 428 c 0,28,24
 538 428 538 428 538 489 c 128,-1,25
569 211 m 0,29,30
 569 252 569 252 516.5 276.5 c 128,-1,31
 464 301 464 301 379 301 c 0,32,33
 290 301 290 301 240 276.5 c 128,-1,34
 190 252 190 252 190 206 c 0,35,36
 190 167 190 167 242.5 141.5 c 128,-1,37
 295 116 295 116 379 116 c 0,38,39
 406 116 406 116 433.5 119.5 c 128,-1,40
 461 123 461 123 494.5 131.5 c 128,-1,41
 528 140 528 140 548.5 161 c 128,-1,42
 569 182 569 182 569 211 c 0,29,30
EndSplineSet
EndChar
StartChar: uni2089
Encoding: 8329 8329 104
Width: 442
Flags: W
LayerCount: 2
Fore
SplineSet
404 224 m 0,0,1
 404 127 404 127 334.5 59.5 c 128,-1,2
 265 -8 265 -8 169 -8 c 0,3,4
 136 -8 136 -8 104 1 c 1,5,-1
 125 73 l 1,6,7
 159 63 159 63 169 63 c 0,8,9
 212 63 212 63 251.5 85.5 c 128,-1,10
 291 108 291 108 310 145 c 1,11,12
 316 153 316 153 321 167 c 1,13,14
 272 150 272 150 211 150 c 0,15,16
 133 150 133 150 85.5 182.5 c 128,-1,17
 38 215 38 215 38 269 c 0,18,19
 38 303 38 303 55.5 328.5 c 128,-1,20
 73 354 73 354 101 367.5 c 128,-1,21
 129 381 129 381 159.5 387 c 128,-1,22
 190 393 190 393 223 393 c 0,23,24
 404 393 404 393 404 224 c 0,0,1
323 273 m 0,25,26
 323 293 323 293 293.5 306 c 128,-1,27
 264 319 264 319 219 319 c 0,28,29
 169 319 169 319 140.5 307 c 128,-1,30
 112 295 112 295 112 272 c 128,-1,31
 112 249 112 249 140.5 236.5 c 128,-1,32
 169 224 169 224 219 224 c 0,33,34
 267 224 267 224 295 237 c 128,-1,35
 323 250 323 250 323 273 c 0,25,26
EndSplineSet
EndChar
